<svg xmlns="http://www.w3.org/2000/svg" xmlns:xlink="http://www.w3.org/1999/xlink" xmlns:lucid="lucid" width="1360.8" height="1862.58"><g transform="translate(-132.69868980928482 1032.4409520822367)" lucid:page-tab-id="0_0"><path d="M0-1500h1500v2500H0z" fill="#fff"/><path d="M152.7-1006.44a6 6 0 0 1 6-6h1308.8a6 6 0 0 1 6 6v635.9a6 6 0 0 1-6 6H158.7a6 6 0 0 1-6-6z" fill-opacity="0"/><path d="M168.73-1012.44h10.03m5 0h10.04m5 0h10.04m5.02 0h10.03m5 0h10.03m5.02 0h10.03m5 0h10.04m5 0h10.04m5.02 0h10.03m5.02 0h10.03m5 0h10.04m5 0h10.04m5 0h10.04m5.02 0h10.02m5.02 0h10.03m5 0h10.04m5.03 0h10.02m5.02 0h10.03m5 0h10.04m5.02 0h10.03m5 0h10.03m5 0h10.04m5.02 0h10.02m5 0h10.04m5 0h10.04m5.02 0h10.03m5 0h10.04m5 0h10.03m5.02 0h10.03m5 0h10.04m5.02 0h10.03m5 0h10.04m5.02 0h10.03m5.02 0h10.03m5 0h10.04m5.02 0h10.02m5.02 0h10.03m5 0h10.04m5.02 0h10.02m5 0h10.04m5 0h10.04m5.02 0h10.03m5 0h10.04m5 0h10.03m5.02 0h10.03m5 0h10.04m5.02 0h10.02m5.02 0h10.03m5.02 0h10.03m5.02 0h10.03m5 0h10.04m5 0H946m5.02 0h10.03m5 0h10.04m5 0h10.04m5.03 0h10.03m5 0h10.04m5.02 0h10.02m5.02 0h10.03m5 0h10.03m5.02 0h10.03m5 0h10.04m5 0h10.04m5.02 0h10.03m5.02 0h10.03m5.02 0h10.02m5 0h10.04m5 0h10.04m5.02 0h10.02m5.02 0h10.03m5 0h10.04m5.03 0h10.03m5 0h10.04m5 0h10.04m5.02 0H1292m5 0h10.03m5.02 0h10.02m5.02 0h10.02m5 0h10.04m5.02 0h10.02m5.02 0h10.03m5 0h10.04m5 0h10.04m5 0h10.04m5 0h10.04m5.02 0h10.03m5 0h5.03l.93.07.92.22.87.36.8.5.72.62.6.7.5.82.36.87.22.92.08.94v5.05m0 5.05v10.1m0 5.04v10.1m0 5.03v10.1m0 5.04v10.1m0 5.04v10.1m0 5.05v10.1m0 5.04v10.1m0 5.03v10.1m0 5.04v10.1m0 5.04v10.1m0 5.05v10.1m0 5.04v10.1m0 5.04v10.1m0 5.03v10.1m0 5.04v10.1m0 5.05v10.1m0 5.04v10.1m0 5.03v10.1m0 5.05v10.1m0 5.04v10.1m0 5.04v10.1m0 5.04v10.1m0 5.04v10.1m0 5.04v10.1m0 5.04v10.1m0 5.04v10.1m0 5.04v10.1m0 5.04v10.1m0 5.04v10.1m0 5.04v10.1m0 5.04v10.1m0 5.04v10.1m0 5.04v10.1m0 5.04v10.1m0 5.04v10.1m0 5.04v10.1m0 5.04v10.1m0 5.04v10.1m0 5.04v10.1m0 5.04v10.1m0 5.04v10.1m0 5.04v5.05l-.08.94-.22.9-.36.87-.5.8-.6.72-.72.6-.8.5-.87.35-.9.22-.95.08h-5.02m-5 0h-10.04m-5.02 0h-10.03m-5.02 0h-10.03m-5 0h-10.04m-5 0h-10.04m-5 0h-10.04m-5.02 0h-10.02m-5.02 0h-10.03m-5 0h-10.04m-5.03 0h-10.02m-5.02 0H1297m-5 0h-10.04m-5.02 0h-10.03m-5 0h-10.03m-5 0h-10.04m-5.02 0h-10.02m-5 0h-10.04m-5.02 0h-10.02m-5.02 0h-10.03m-5 0h-10.04m-5 0h-10.03m-5.02 0h-10.03m-5 0h-10.04m-5.02 0h-10.03m-5 0h-10.04m-5.02 0h-10.03m-5.02 0h-10.03m-5 0h-10.04m-5.02 0h-10.02m-5.02 0h-10.03m-5 0h-10.04m-5.02 0h-10m-5.03 0h-10.03m-5 0H951m-5.02 0h-10.03m-5 0H920.9m-5 0h-10.03m-5.02 0h-10.03m-5 0h-10.04m-5 0h-10.04m-5.02 0H845.7m-5.02 0h-10.03m-5.02 0H815.6m-5 0h-10.04m-5 0H785.5m-5.02 0h-10.03m-5 0h-10.04m-5 0h-10.04m-5.03 0h-10.03m-5 0H710.3m-5 0h-10.04m-5.02 0H680.2m-5 0h-10.03m-5.02 0h-10.02m-5.02 0H635.1m-5 0h-10.04m-5.02 0H605m-5.02 0h-10.03m-5.02 0H574.9m-5 0h-10.04m-5 0H544.8m-5.02 0H529.8m-5.02 0h-10.03m-5 0h-10.04m-5.03 0h-10.03m-5 0H469.6m-5 0h-10.04m-5.02 0H439.5m-5 0h-10.03m-5.02 0h-10.02m-5.02 0H394.4m-5 0h-10.04m-5.02 0H364.3m-5.02 0h-10.03m-5 0H334.2m-5 0h-10.04m-5 0H304.1m-5 0h-10.04m-5.02 0h-10.03m-5 0h-10.04m-5.03 0h-10.02m-5.02 0H228.9m-5 0h-10.04m-5.02 0H198.8m-5 0h-10.03m-5 0h-10.04m-5.02 0h-5l-.94-.08-.9-.22-.9-.36-.8-.5-.7-.6-.62-.73-.5-.8-.35-.87-.23-.92-.07-.93v-5.05m0-5.05v-10.1m0-5.04v-10.08m0-5.05v-10.1m0-5.04v-10.1m0-5.04v-10.1m0-5.05v-10.1m0-5.04v-10.08m0-5.05v-10.1m0-5.04v-10.1m0-5.04V-527m0-5.05v-10.1m0-5.04v-10.08m0-5.05v-10.1m0-5.04v-10.1m0-5.04v-10.1m0-5.05v-10.1m0-5.04v-10.08m0-5.05v-10.1m0-5.04v-10.1m0-5.04v-10.1m0-5.05v-10.1m0-5.04v-10.08m0-5.05v-10.1m0-5.04v-10.1m0-5.04v-10.1m0-5.05v-10.1m0-5.04v-10.1m0-5.03v-10.1m0-5.04v-10.1m0-5.04v-10.1m0-5.05v-10.1m0-5.04v-10.1m0-5.03v-10.1m0-5.04v-10.1m0-5.04v-10.1m0-5.05v-10.1m0-5.04v-10.1m0-5.03v-10.1m0-5.04v-10.1m0-5.04v-10.1m0-5.05v-10.1m0-5.04v-5.04l.07-.94.22-.9.35-.88.5-.8.6-.72.72-.62.8-.5.88-.35.9-.22.95-.07h5" stroke="#0e76d4" fill="none"/><path d="M162.7-1002.44h36v36h-36v-36z" stroke="#000" stroke-opacity="0" fill-opacity="0"/><path d="M163.7-972.28c0 .13.06.22.16.3l2.32 1.27 3.9 2.27c.18.06.38.03.47-.13l1.32-2.25c.08-.17.03-.33-.12-.42l-4.6-2.6c-.1-.06-.15-.16-.15-.3v-20.6c0-.14.06-.24.16-.3l4.6-2.6c.14-.1.2-.26.12-.42l-1.33-2.24c-.1-.16-.3-.23-.46-.16l-3.84 2.2-2.4 1.36c-.1.06-.16.16-.16.3v24.3z" stroke="#000" stroke-opacity="0" fill="#949494"/><path d="M166.98-994.9l.12-.12 4.6-2.6.06-.03c.12-.1.15-.27.06-.4l-1.32-2.24-.03-.04c-.1-.15-.27-.2-.4-.1l-3.87 2.2-2.38 1.35s-.1 0-.12.14l1.8 1.02zM171.7-971.25l-4.6-2.6c-.07-.05-.1-.1-.15-.2l-3.23 2.02h.1l2.3 1.3 4 2.22h.03c.15.1.33.02.4-.13l1.3-2.24h.02v-.04c.05-.16-.04-.3-.2-.35z" stroke="#000" stroke-opacity="0" fill="#a3a3a3"/><path d="M197.7-972.28c0 .13-.07.22-.16.3l-2.33 1.27-3.9 2.27c-.17.06-.36.03-.46-.13l-1.32-2.25c-.08-.17-.03-.33.12-.42l4.6-2.6c.1-.06.15-.16.15-.3v-20.6c0-.14-.07-.24-.16-.3l-4.6-2.6c-.15-.1-.2-.26-.12-.42l1.32-2.24c.08-.16.28-.23.45-.16l3.83 2.18 2.4 1.35c.1.05.16.14.16.27v24.35z" stroke="#000" stroke-opacity="0" fill="#949494"/><path d="M194.4-994.9l-.1-.12-4.6-2.6c-.15-.06-.22-.23-.16-.37l.03-.04 1.32-2.25c.04-.14.2-.23.37-.17l.06.03 3.86 2.18 2.37 1.33.12.13-1.8 1zM189.7-971.25l4.6-2.6c.08-.05.12-.1.15-.2l3.24 2.02-2.3 1.3-4 2.22c-.14.08-.33.05-.42-.1 0 0-.02 0-.03-.03l-1.32-2.24c-.08-.13-.04-.3.08-.38z" stroke="#000" stroke-opacity="0" fill="#a3a3a3"/><path d="M191.32-990.6v12.28l-10.66 6.2v-12.3l10.66-6.18z" stroke="#000" stroke-opacity="0" fill="#32bedd"/><path d="M191.32-990.58l-10.64 6.18-10.64-6.18 10.64-6.17 10.64 6.17z" stroke="#000" stroke-opacity="0" fill="#9cebff"/><path d="M180.66-984.4v12.27l-10.62-6.2v-12.27l10.62 6.2z" stroke="#000" stroke-opacity="0" fill="#50e6ff"/><path d="M170.04-978.27l10.62-6.13v12.3l-10.62-6.17z" stroke="#000" stroke-opacity="0" fill="#9cebff"/><path d="M191.32-978.27l-10.66-6.13v12.3l10.66-6.17z" stroke="#000" stroke-opacity="0" fill="#50e6ff"/><use xlink:href="#a" transform="matrix(1,0,0,1,228.69868980928482,-992.4409520822367) translate(0 14.4)"/><use xlink:href="#b" transform="matrix(1,0,0,1,228.69868980928482,-992.4409520822367) translate(54.900000000000006 14.4)"/><use xlink:href="#c" transform="matrix(1,0,0,1,228.69868980928482,-992.4409520822367) translate(84.85000000000001 14.4)"/><use xlink:href="#d" transform="matrix(1,0,0,1,228.69868980928482,-992.4409520822367) translate(166.75 14.4)"/><path d="M837.64-966.2a6 6 0 0 1 6-6h287.65a6 6 0 0 1 6 6v210.42a6 6 0 0 1-6 6H843.63a6 6 0 0 1-6-6z" fill-opacity="0"/><path d="M839.14-966.2c0 .84-.68 1.5-1.5 1.5-.83 0-1.5-.66-1.5-1.5 0-.82.67-1.5 1.5-1.5.82 0 1.5.68 1.5 1.5zm1.75-4.23c0 .82-.68 1.5-1.5 1.5-.84 0-1.5-.68-1.5-1.5 0-.83.66-1.5 1.5-1.5.82 0 1.5.67 1.5 1.5zm4.24-1.76c0 .84-.68 1.5-1.5 1.5-.83 0-1.5-.66-1.5-1.5 0-.82.67-1.5 1.5-1.5.82 0 1.5.68 1.5 1.5zm6 0c0 .84-.68 1.5-1.5 1.5-.84 0-1.5-.66-1.5-1.5 0-.82.66-1.5 1.5-1.5.82 0 1.5.68 1.5 1.5zm5.98 0c0 .84-.67 1.5-1.5 1.5s-1.5-.66-1.5-1.5c0-.82.67-1.5 1.5-1.5s1.5.68 1.5 1.5zm6 0c0 .84-.68 1.5-1.5 1.5-.84 0-1.5-.66-1.5-1.5 0-.82.66-1.5 1.5-1.5.82 0 1.5.68 1.5 1.5zm6 0c0 .84-.7 1.5-1.5 1.5-.84 0-1.5-.66-1.5-1.5 0-.82.66-1.5 1.5-1.5.8 0 1.5.68 1.5 1.5zm5.98 0c0 .84-.67 1.5-1.5 1.5s-1.5-.66-1.5-1.5c0-.82.67-1.5 1.5-1.5s1.5.68 1.5 1.5zm6 0c0 .84-.68 1.5-1.5 1.5-.84 0-1.5-.66-1.5-1.5 0-.82.66-1.5 1.5-1.5.82 0 1.5.68 1.5 1.5zm6 0c0 .84-.7 1.5-1.5 1.5-.84 0-1.5-.66-1.5-1.5 0-.82.66-1.5 1.5-1.5.8 0 1.5.68 1.5 1.5zm5.98 0c0 .84-.67 1.5-1.5 1.5s-1.5-.66-1.5-1.5c0-.82.67-1.5 1.5-1.5s1.5.68 1.5 1.5zm6 0c0 .84-.68 1.5-1.5 1.5-.84 0-1.5-.66-1.5-1.5 0-.82.66-1.5 1.5-1.5.82 0 1.5.68 1.5 1.5zm5.98 0c0 .84-.67 1.5-1.5 1.5s-1.5-.66-1.5-1.5c0-.82.67-1.5 1.5-1.5s1.5.68 1.5 1.5zm6 0c0 .84-.68 1.5-1.5 1.5-.83 0-1.5-.66-1.5-1.5 0-.82.67-1.5 1.5-1.5.82 0 1.5.68 1.5 1.5zm6 0c0 .84-.68 1.5-1.5 1.5-.84 0-1.5-.66-1.5-1.5 0-.82.66-1.5 1.5-1.5.82 0 1.5.68 1.5 1.5zm5.98 0c0 .84-.67 1.5-1.5 1.5s-1.5-.66-1.5-1.5c0-.82.67-1.5 1.5-1.5s1.5.68 1.5 1.5zm6 0c0 .84-.68 1.5-1.5 1.5-.83 0-1.5-.66-1.5-1.5 0-.82.67-1.5 1.5-1.5.82 0 1.5.68 1.5 1.5zm6 0c0 .84-.68 1.5-1.5 1.5-.84 0-1.5-.66-1.5-1.5 0-.82.66-1.5 1.5-1.5.82 0 1.5.68 1.5 1.5zm5.98 0c0 .84-.67 1.5-1.5 1.5s-1.5-.66-1.5-1.5c0-.82.67-1.5 1.5-1.5s1.5.68 1.5 1.5zm6 0c0 .84-.68 1.5-1.5 1.5-.84 0-1.5-.66-1.5-1.5 0-.82.66-1.5 1.5-1.5.82 0 1.5.68 1.5 1.5zm6 0c0 .84-.7 1.5-1.5 1.5-.84 0-1.5-.66-1.5-1.5 0-.82.66-1.5 1.5-1.5.8 0 1.5.68 1.5 1.5zm5.98 0c0 .84-.67 1.5-1.5 1.5s-1.5-.66-1.5-1.5c0-.82.67-1.5 1.5-1.5s1.5.68 1.5 1.5zm6 0c0 .84-.68 1.5-1.5 1.5-.84 0-1.5-.66-1.5-1.5 0-.82.66-1.5 1.5-1.5.82 0 1.5.68 1.5 1.5zm5.98 0c0 .84-.67 1.5-1.5 1.5s-1.5-.66-1.5-1.5c0-.82.67-1.5 1.5-1.5s1.5.68 1.5 1.5zm6 0c0 .84-.68 1.5-1.5 1.5-.83 0-1.5-.66-1.5-1.5 0-.82.67-1.5 1.5-1.5.82 0 1.5.68 1.5 1.5zm6 0c0 .84-.68 1.5-1.5 1.5-.84 0-1.5-.66-1.5-1.5 0-.82.66-1.5 1.5-1.5.82 0 1.5.68 1.5 1.5zm5.98 0c0 .84-.67 1.5-1.5 1.5s-1.5-.66-1.5-1.5c0-.82.67-1.5 1.5-1.5s1.5.68 1.5 1.5zm6 0c0 .84-.68 1.5-1.5 1.5-.84 0-1.5-.66-1.5-1.5 0-.82.66-1.5 1.5-1.5.82 0 1.5.68 1.5 1.5zm6 0c0 .84-.7 1.5-1.5 1.5-.84 0-1.5-.66-1.5-1.5 0-.82.66-1.5 1.5-1.5.8 0 1.5.68 1.5 1.5zm5.98 0c0 .84-.67 1.5-1.5 1.5s-1.5-.66-1.5-1.5c0-.82.67-1.5 1.5-1.5s1.5.68 1.5 1.5zm6 0c0 .84-.68 1.5-1.5 1.5-.84 0-1.5-.66-1.5-1.5 0-.82.66-1.5 1.5-1.5.82 0 1.5.68 1.5 1.5zm5.98 0c0 .84-.67 1.5-1.5 1.5-.82 0-1.5-.66-1.5-1.5 0-.82.68-1.5 1.5-1.5.83 0 1.5.68 1.5 1.5zm6 0c0 .84-.67 1.5-1.5 1.5s-1.5-.66-1.5-1.5c0-.82.67-1.5 1.5-1.5s1.5.68 1.5 1.5zm6 0c0 .84-.68 1.5-1.5 1.5-.84 0-1.5-.66-1.5-1.5 0-.82.66-1.5 1.5-1.5.82 0 1.5.68 1.5 1.5zm5.98 0c0 .84-.67 1.5-1.5 1.5s-1.5-.66-1.5-1.5c0-.82.67-1.5 1.5-1.5s1.5.68 1.5 1.5zm6 0c0 .84-.68 1.5-1.5 1.5-.83 0-1.5-.66-1.5-1.5 0-.82.67-1.5 1.5-1.5.82 0 1.5.68 1.5 1.5zm6 0c0 .84-.68 1.5-1.5 1.5-.84 0-1.5-.66-1.5-1.5 0-.82.66-1.5 1.5-1.5.82 0 1.5.68 1.5 1.5zm5.98 0c0 .84-.67 1.5-1.5 1.5s-1.5-.66-1.5-1.5c0-.82.67-1.5 1.5-1.5s1.5.68 1.5 1.5zm6 0c0 .84-.68 1.5-1.5 1.5-.84 0-1.5-.66-1.5-1.5 0-.82.66-1.5 1.5-1.5.82 0 1.5.68 1.5 1.5zm6 0c0 .84-.7 1.5-1.5 1.5-.84 0-1.5-.66-1.5-1.5 0-.82.66-1.5 1.5-1.5.8 0 1.5.68 1.5 1.5zm5.98 0c0 .84-.67 1.5-1.5 1.5s-1.5-.66-1.5-1.5c0-.82.67-1.5 1.5-1.5s1.5.68 1.5 1.5zm6 0c0 .84-.68 1.5-1.5 1.5-.84 0-1.5-.66-1.5-1.5 0-.82.66-1.5 1.5-1.5.82 0 1.5.68 1.5 1.5zm6 0c0 .84-.7 1.5-1.5 1.5-.84 0-1.5-.66-1.5-1.5 0-.82.66-1.5 1.5-1.5.8 0 1.5.68 1.5 1.5zm5.98 0c0 .84-.67 1.5-1.5 1.5s-1.5-.66-1.5-1.5c0-.82.67-1.5 1.5-1.5s1.5.68 1.5 1.5zm6 0c0 .84-.68 1.5-1.5 1.5-.84 0-1.5-.66-1.5-1.5 0-.82.66-1.5 1.5-1.5.82 0 1.5.68 1.5 1.5zm5.98 0c0 .84-.67 1.5-1.5 1.5s-1.5-.66-1.5-1.5c0-.82.67-1.5 1.5-1.5s1.5.68 1.5 1.5zm6 0c0 .84-.68 1.5-1.5 1.5-.83 0-1.5-.66-1.5-1.5 0-.82.67-1.5 1.5-1.5.82 0 1.5.68 1.5 1.5zm6 0c0 .84-.68 1.5-1.5 1.5-.84 0-1.5-.66-1.5-1.5 0-.82.66-1.5 1.5-1.5.82 0 1.5.68 1.5 1.5zm5.98 0c0 .84-.67 1.5-1.5 1.5s-1.5-.66-1.5-1.5c0-.82.67-1.5 1.5-1.5s1.5.68 1.5 1.5zm6 0c0 .84-.68 1.5-1.5 1.5-.84 0-1.5-.66-1.5-1.5 0-.82.66-1.5 1.5-1.5.82 0 1.5.68 1.5 1.5zm6 0c0 .84-.68 1.5-1.5 1.5-.84 0-1.5-.66-1.5-1.5 0-.82.66-1.5 1.5-1.5.82 0 1.5.68 1.5 1.5zm4.23 1.77c0 .82-.67 1.5-1.5 1.5s-1.5-.68-1.5-1.5c0-.83.67-1.5 1.5-1.5s1.5.67 1.5 1.5zm1.76 4.24c0 .84-.68 1.5-1.5 1.5-.84 0-1.5-.66-1.5-1.5 0-.82.66-1.5 1.5-1.5.82 0 1.5.68 1.5 1.5zm0 6.02c0 .83-.68 1.5-1.5 1.5-.84 0-1.5-.67-1.5-1.5s.66-1.5 1.5-1.5c.82 0 1.5.67 1.5 1.5zm0 6c0 .84-.68 1.5-1.5 1.5-.84 0-1.5-.66-1.5-1.5 0-.82.66-1.5 1.5-1.5.82 0 1.5.68 1.5 1.5zm0 6.02c0 .83-.68 1.5-1.5 1.5-.84 0-1.5-.67-1.5-1.5 0-.82.66-1.5 1.5-1.5.82 0 1.5.68 1.5 1.5zm0 6.02c0 .82-.68 1.5-1.5 1.5-.84 0-1.5-.68-1.5-1.5 0-.83.66-1.5 1.5-1.5.82 0 1.5.67 1.5 1.5zm0 6c0 .84-.68 1.5-1.5 1.5-.84 0-1.5-.66-1.5-1.5 0-.82.66-1.5 1.5-1.5.82 0 1.5.68 1.5 1.5zm0 6.02c0 .83-.68 1.5-1.5 1.5-.84 0-1.5-.67-1.5-1.5s.66-1.5 1.5-1.5c.82 0 1.5.67 1.5 1.5zm0 6c0 .84-.68 1.5-1.5 1.5-.84 0-1.5-.66-1.5-1.5 0-.82.66-1.5 1.5-1.5.82 0 1.5.68 1.5 1.5zm0 6.02c0 .83-.68 1.5-1.5 1.5-.84 0-1.5-.67-1.5-1.5 0-.82.66-1.5 1.5-1.5.82 0 1.5.68 1.5 1.5zm0 6c0 .84-.68 1.5-1.5 1.5-.84 0-1.5-.66-1.5-1.5 0-.8.66-1.5 1.5-1.5.82 0 1.5.7 1.5 1.5zm0 6.03c0 .83-.68 1.5-1.5 1.5-.84 0-1.5-.67-1.5-1.5s.66-1.5 1.5-1.5c.82 0 1.5.67 1.5 1.5zm0 6c0 .84-.68 1.5-1.5 1.5-.84 0-1.5-.66-1.5-1.5 0-.82.66-1.5 1.5-1.5.82 0 1.5.68 1.5 1.5zm0 6.02c0 .83-.68 1.5-1.5 1.5-.84 0-1.5-.67-1.5-1.5s.66-1.5 1.5-1.5c.82 0 1.5.67 1.5 1.5zm0 6c0 .84-.68 1.5-1.5 1.5-.84 0-1.5-.66-1.5-1.5 0-.82.66-1.5 1.5-1.5.82 0 1.5.68 1.5 1.5zm0 6.02c0 .83-.68 1.5-1.5 1.5-.84 0-1.5-.67-1.5-1.5s.66-1.5 1.5-1.5c.82 0 1.5.67 1.5 1.5zm0 6c0 .84-.68 1.5-1.5 1.5-.84 0-1.5-.66-1.5-1.5 0-.8.66-1.5 1.5-1.5.82 0 1.5.7 1.5 1.5zm0 6.03c0 .83-.68 1.5-1.5 1.5-.84 0-1.5-.67-1.5-1.5s.66-1.5 1.5-1.5c.82 0 1.5.67 1.5 1.5zm0 6c0 .84-.68 1.5-1.5 1.5-.84 0-1.5-.66-1.5-1.5 0-.82.66-1.5 1.5-1.5.82 0 1.5.68 1.5 1.5zm0 6.02c0 .83-.68 1.5-1.5 1.5-.84 0-1.5-.67-1.5-1.5s.66-1.5 1.5-1.5c.82 0 1.5.67 1.5 1.5zm0 6c0 .84-.68 1.5-1.5 1.5-.84 0-1.5-.66-1.5-1.5 0-.82.66-1.5 1.5-1.5.82 0 1.5.68 1.5 1.5zm0 6.02c0 .83-.68 1.5-1.5 1.5-.84 0-1.5-.67-1.5-1.5 0-.82.66-1.5 1.5-1.5.82 0 1.5.68 1.5 1.5zm0 6c0 .84-.68 1.5-1.5 1.5-.84 0-1.5-.66-1.5-1.5 0-.8.66-1.5 1.5-1.5.82 0 1.5.7 1.5 1.5zm0 6.03c0 .82-.68 1.5-1.5 1.5-.84 0-1.5-.68-1.5-1.5 0-.83.66-1.5 1.5-1.5.82 0 1.5.67 1.5 1.5zm0 6c0 .84-.68 1.5-1.5 1.5-.84 0-1.5-.66-1.5-1.5 0-.82.66-1.5 1.5-1.5.82 0 1.5.68 1.5 1.5zm0 6.02c0 .82-.68 1.5-1.5 1.5-.84 0-1.5-.68-1.5-1.5 0-.84.66-1.5 1.5-1.5.82 0 1.5.66 1.5 1.5zm0 6c0 .83-.68 1.5-1.5 1.5-.84 0-1.5-.67-1.5-1.5s.66-1.5 1.5-1.5c.82 0 1.5.67 1.5 1.5zm0 6c0 .84-.68 1.5-1.5 1.5-.84 0-1.5-.66-1.5-1.5 0-.82.66-1.5 1.5-1.5.82 0 1.5.68 1.5 1.5zm0 6.02c0 .83-.68 1.5-1.5 1.5-.84 0-1.5-.67-1.5-1.5 0-.82.66-1.5 1.5-1.5.82 0 1.5.68 1.5 1.5zm0 6.02c0 .83-.68 1.5-1.5 1.5-.84 0-1.5-.67-1.5-1.5s.66-1.5 1.5-1.5c.82 0 1.5.67 1.5 1.5zm0 6c0 .84-.68 1.5-1.5 1.5-.84 0-1.5-.66-1.5-1.5 0-.82.66-1.5 1.5-1.5.82 0 1.5.68 1.5 1.5zm0 6.02c0 .83-.68 1.5-1.5 1.5-.84 0-1.5-.67-1.5-1.5s.66-1.5 1.5-1.5c.82 0 1.5.67 1.5 1.5zm0 6c0 .84-.68 1.5-1.5 1.5-.84 0-1.5-.66-1.5-1.5 0-.82.66-1.5 1.5-1.5.82 0 1.5.68 1.5 1.5zm0 6.02c0 .83-.68 1.5-1.5 1.5-.84 0-1.5-.67-1.5-1.5 0-.82.66-1.5 1.5-1.5.82 0 1.5.68 1.5 1.5zm0 6.02c0 .82-.68 1.5-1.5 1.5-.84 0-1.5-.68-1.5-1.5 0-.83.66-1.5 1.5-1.5.82 0 1.5.67 1.5 1.5zm0 6c0 .83-.68 1.5-1.5 1.5-.84 0-1.5-.67-1.5-1.5 0-.82.66-1.5 1.5-1.5.82 0 1.5.68 1.5 1.5zm0 6.02c0 .83-.68 1.5-1.5 1.5-.84 0-1.5-.67-1.5-1.5s.66-1.5 1.5-1.5c.82 0 1.5.67 1.5 1.5zm-1.77 4.24c0 .83-.67 1.5-1.5 1.5s-1.5-.67-1.5-1.5.67-1.5 1.5-1.5 1.5.67 1.5 1.5zm-4.24 1.76c0 .83-.68 1.5-1.5 1.5-.84 0-1.5-.67-1.5-1.5s.66-1.5 1.5-1.5c.82 0 1.5.67 1.5 1.5zm-6 0c0 .83-.68 1.5-1.5 1.5-.84 0-1.5-.67-1.5-1.5s.66-1.5 1.5-1.5c.82 0 1.5.67 1.5 1.5zm-6 0c0 .83-.67 1.5-1.5 1.5s-1.5-.67-1.5-1.5.67-1.5 1.5-1.5 1.5.67 1.5 1.5zm-6 0c0 .83-.66 1.5-1.5 1.5-.82 0-1.5-.67-1.5-1.5s.68-1.5 1.5-1.5c.84 0 1.5.67 1.5 1.5zm-5.98 0c0 .83-.68 1.5-1.5 1.5-.83 0-1.5-.67-1.5-1.5s.67-1.5 1.5-1.5c.82 0 1.5.67 1.5 1.5zm-6 0c0 .83-.67 1.5-1.5 1.5s-1.5-.67-1.5-1.5.67-1.5 1.5-1.5 1.5.67 1.5 1.5zm-6 0c0 .83-.66 1.5-1.5 1.5-.82 0-1.5-.67-1.5-1.5s.68-1.5 1.5-1.5c.84 0 1.5.67 1.5 1.5zm-5.98 0c0 .83-.67 1.5-1.5 1.5s-1.5-.67-1.5-1.5.67-1.5 1.5-1.5 1.5.67 1.5 1.5zm-6 0c0 .83-.67 1.5-1.5 1.5-.82 0-1.5-.67-1.5-1.5s.68-1.5 1.5-1.5c.83 0 1.5.67 1.5 1.5zm-6 0c0 .83-.66 1.5-1.5 1.5-.82 0-1.5-.67-1.5-1.5s.68-1.5 1.5-1.5c.84 0 1.5.67 1.5 1.5zm-5.98 0c0 .83-.67 1.5-1.5 1.5s-1.5-.67-1.5-1.5.67-1.5 1.5-1.5 1.5.67 1.5 1.5zm-6 0c0 .83-.66 1.5-1.5 1.5-.82 0-1.5-.67-1.5-1.5s.68-1.5 1.5-1.5c.84 0 1.5.67 1.5 1.5zm-6 0c0 .83-.66 1.5-1.5 1.5-.8 0-1.5-.67-1.5-1.5s.7-1.5 1.5-1.5c.84 0 1.5.67 1.5 1.5zm-5.98 0c0 .83-.67 1.5-1.5 1.5s-1.5-.67-1.5-1.5.67-1.5 1.5-1.5 1.5.67 1.5 1.5zm-6 0c0 .83-.66 1.5-1.5 1.5-.82 0-1.5-.67-1.5-1.5s.68-1.5 1.5-1.5c.84 0 1.5.67 1.5 1.5zm-5.98 0c0 .83-.68 1.5-1.5 1.5-.83 0-1.5-.67-1.5-1.5s.67-1.5 1.5-1.5c.82 0 1.5.67 1.5 1.5zm-6 0c0 .83-.67 1.5-1.5 1.5s-1.5-.67-1.5-1.5.67-1.5 1.5-1.5 1.5.67 1.5 1.5zm-6 0c0 .83-.66 1.5-1.5 1.5-.82 0-1.5-.67-1.5-1.5s.68-1.5 1.5-1.5c.84 0 1.5.67 1.5 1.5zm-5.98 0c0 .83-.67 1.5-1.5 1.5s-1.5-.67-1.5-1.5.67-1.5 1.5-1.5 1.5.67 1.5 1.5zm-6 0c0 .83-.67 1.5-1.5 1.5-.82 0-1.5-.67-1.5-1.5s.68-1.5 1.5-1.5c.83 0 1.5.67 1.5 1.5zm-6 0c0 .83-.66 1.5-1.5 1.5-.82 0-1.5-.67-1.5-1.5s.68-1.5 1.5-1.5c.84 0 1.5.67 1.5 1.5zm-5.98 0c0 .83-.67 1.5-1.5 1.5s-1.5-.67-1.5-1.5.67-1.5 1.5-1.5 1.5.67 1.5 1.5zm-6 0c0 .83-.67 1.5-1.5 1.5-.82 0-1.5-.67-1.5-1.5s.68-1.5 1.5-1.5c.83 0 1.5.67 1.5 1.5zm-6 0c0 .83-.66 1.5-1.5 1.5-.82 0-1.5-.67-1.5-1.5s.68-1.5 1.5-1.5c.84 0 1.5.67 1.5 1.5zm-5.98 0c0 .83-.67 1.5-1.5 1.5s-1.5-.67-1.5-1.5.67-1.5 1.5-1.5 1.5.67 1.5 1.5zm-6 0c0 .83-.66 1.5-1.5 1.5-.82 0-1.5-.67-1.5-1.5s.68-1.5 1.5-1.5c.84 0 1.5.67 1.5 1.5zm-5.98 0c0 .83-.68 1.5-1.5 1.5-.83 0-1.5-.67-1.5-1.5s.67-1.5 1.5-1.5c.82 0 1.5.67 1.5 1.5zm-6 0c0 .83-.67 1.5-1.5 1.5s-1.5-.67-1.5-1.5.67-1.5 1.5-1.5 1.5.67 1.5 1.5zm-6 0c0 .83-.66 1.5-1.5 1.5-.82 0-1.5-.67-1.5-1.5s.68-1.5 1.5-1.5c.84 0 1.5.67 1.5 1.5zm-5.98 0c0 .83-.67 1.5-1.5 1.5s-1.5-.67-1.5-1.5.67-1.5 1.5-1.5 1.5.67 1.5 1.5zm-6 0c0 .83-.67 1.5-1.5 1.5-.82 0-1.5-.67-1.5-1.5s.68-1.5 1.5-1.5c.83 0 1.5.67 1.5 1.5zm-6 0c0 .83-.66 1.5-1.5 1.5-.82 0-1.5-.67-1.5-1.5s.68-1.5 1.5-1.5c.84 0 1.5.67 1.5 1.5zm-5.98 0c0 .83-.67 1.5-1.5 1.5s-1.5-.67-1.5-1.5.67-1.5 1.5-1.5 1.5.67 1.5 1.5zm-6 0c0 .83-.66 1.5-1.5 1.5-.82 0-1.5-.67-1.5-1.5s.68-1.5 1.5-1.5c.84 0 1.5.67 1.5 1.5zm-6 0c0 .83-.66 1.5-1.5 1.5-.8 0-1.5-.67-1.5-1.5s.7-1.5 1.5-1.5c.84 0 1.5.67 1.5 1.5zm-5.98 0c0 .83-.67 1.5-1.5 1.5s-1.5-.67-1.5-1.5.67-1.5 1.5-1.5 1.5.67 1.5 1.5zm-6 0c0 .83-.66 1.5-1.5 1.5-.82 0-1.5-.67-1.5-1.5s.68-1.5 1.5-1.5c.84 0 1.5.67 1.5 1.5zm-5.98 0c0 .83-.68 1.5-1.5 1.5-.83 0-1.5-.67-1.5-1.5s.67-1.5 1.5-1.5c.82 0 1.5.67 1.5 1.5zm-6 0c0 .83-.67 1.5-1.5 1.5s-1.5-.67-1.5-1.5.67-1.5 1.5-1.5 1.5.67 1.5 1.5zm-6 0c0 .83-.66 1.5-1.5 1.5-.82 0-1.5-.67-1.5-1.5s.68-1.5 1.5-1.5c.84 0 1.5.67 1.5 1.5zm-5.98 0c0 .83-.67 1.5-1.5 1.5s-1.5-.67-1.5-1.5.67-1.5 1.5-1.5 1.5.67 1.5 1.5zm-6 0c0 .83-.67 1.5-1.5 1.5-.82 0-1.5-.67-1.5-1.5s.68-1.5 1.5-1.5c.83 0 1.5.67 1.5 1.5zm-6 0c0 .83-.66 1.5-1.5 1.5-.82 0-1.5-.67-1.5-1.5s.68-1.5 1.5-1.5c.84 0 1.5.67 1.5 1.5zm-5.98 0c0 .83-.67 1.5-1.5 1.5s-1.5-.67-1.5-1.5.67-1.5 1.5-1.5 1.5.67 1.5 1.5zm-6 0c0 .83-.67 1.5-1.5 1.5-.82 0-1.5-.67-1.5-1.5s.68-1.5 1.5-1.5c.83 0 1.5.67 1.5 1.5zm-6 0c0 .83-.66 1.5-1.5 1.5-.82 0-1.5-.67-1.5-1.5s.68-1.5 1.5-1.5c.84 0 1.5.67 1.5 1.5zm-5.98 0c0 .83-.67 1.5-1.5 1.5s-1.5-.67-1.5-1.5.67-1.5 1.5-1.5 1.5.67 1.5 1.5zm-6 0c0 .83-.66 1.5-1.5 1.5-.82 0-1.5-.67-1.5-1.5s.68-1.5 1.5-1.5c.84 0 1.5.67 1.5 1.5zm-5.98 0c0 .83-.68 1.5-1.5 1.5-.83 0-1.5-.67-1.5-1.5s.67-1.5 1.5-1.5c.82 0 1.5.67 1.5 1.5zm-4.25-1.76c0 .83-.68 1.5-1.5 1.5-.84 0-1.5-.67-1.5-1.5s.66-1.5 1.5-1.5c.82 0 1.5.67 1.5 1.5zm-1.76-4.24c0 .83-.68 1.5-1.5 1.5-.83 0-1.5-.67-1.5-1.5s.67-1.5 1.5-1.5c.82 0 1.5.67 1.5 1.5zm0-6c0 .8-.68 1.5-1.5 1.5-.83 0-1.5-.7-1.5-1.5 0-.84.67-1.5 1.5-1.5.82 0 1.5.66 1.5 1.5zm0-6.02c0 .82-.68 1.5-1.5 1.5-.83 0-1.5-.68-1.5-1.5 0-.83.67-1.5 1.5-1.5.82 0 1.5.67 1.5 1.5zm0-6.02c0 .83-.68 1.5-1.5 1.5-.83 0-1.5-.67-1.5-1.5 0-.82.67-1.5 1.5-1.5.82 0 1.5.68 1.5 1.5zm0-6c0 .82-.68 1.5-1.5 1.5-.83 0-1.5-.68-1.5-1.5 0-.84.67-1.5 1.5-1.5.82 0 1.5.66 1.5 1.5zm0-6.02c0 .83-.68 1.5-1.5 1.5-.83 0-1.5-.67-1.5-1.5s.67-1.5 1.5-1.5c.82 0 1.5.67 1.5 1.5zm0-6c0 .82-.68 1.5-1.5 1.5-.83 0-1.5-.68-1.5-1.5 0-.84.67-1.5 1.5-1.5.82 0 1.5.66 1.5 1.5zm0-6.02c0 .83-.68 1.5-1.5 1.5-.83 0-1.5-.67-1.5-1.5s.67-1.5 1.5-1.5c.82 0 1.5.67 1.5 1.5zm0-6c0 .8-.68 1.5-1.5 1.5-.83 0-1.5-.7-1.5-1.5 0-.84.67-1.5 1.5-1.5.82 0 1.5.66 1.5 1.5zm0-6.03c0 .84-.68 1.5-1.5 1.5-.83 0-1.5-.66-1.5-1.5 0-.82.67-1.5 1.5-1.5.82 0 1.5.68 1.5 1.5zm0-6c0 .83-.68 1.5-1.5 1.5-.83 0-1.5-.67-1.5-1.5s.67-1.5 1.5-1.5c.82 0 1.5.67 1.5 1.5zm0-6c0 .82-.68 1.5-1.5 1.5-.83 0-1.5-.68-1.5-1.5 0-.84.67-1.5 1.5-1.5.82 0 1.5.66 1.5 1.5zm0-6.02c0 .83-.68 1.5-1.5 1.5-.83 0-1.5-.67-1.5-1.5s.67-1.5 1.5-1.5c.82 0 1.5.67 1.5 1.5zm0-6c0 .8-.68 1.5-1.5 1.5-.83 0-1.5-.7-1.5-1.5 0-.84.67-1.5 1.5-1.5.82 0 1.5.66 1.5 1.5zm0-6.03c0 .83-.68 1.5-1.5 1.5-.83 0-1.5-.67-1.5-1.5 0-.82.67-1.5 1.5-1.5.82 0 1.5.68 1.5 1.5zm0-6c0 .82-.68 1.5-1.5 1.5-.83 0-1.5-.68-1.5-1.5 0-.83.67-1.5 1.5-1.5.82 0 1.5.67 1.5 1.5zm0-6.02c0 .83-.68 1.5-1.5 1.5-.83 0-1.5-.67-1.5-1.5s.67-1.5 1.5-1.5c.82 0 1.5.67 1.5 1.5zm0-6c0 .82-.68 1.5-1.5 1.5-.83 0-1.5-.68-1.5-1.5 0-.84.67-1.5 1.5-1.5.82 0 1.5.66 1.5 1.5zm0-6.02c0 .84-.68 1.5-1.5 1.5-.83 0-1.5-.66-1.5-1.5 0-.82.67-1.5 1.5-1.5.82 0 1.5.68 1.5 1.5zm0-6c0 .83-.68 1.5-1.5 1.5-.83 0-1.5-.67-1.5-1.5s.67-1.5 1.5-1.5c.82 0 1.5.67 1.5 1.5zm0-6c0 .8-.68 1.5-1.5 1.5-.83 0-1.5-.7-1.5-1.5 0-.84.67-1.5 1.5-1.5.82 0 1.5.66 1.5 1.5zm0-6.03c0 .83-.68 1.5-1.5 1.5-.83 0-1.5-.67-1.5-1.5s.67-1.5 1.5-1.5c.82 0 1.5.67 1.5 1.5zm0-6c0 .82-.68 1.5-1.5 1.5-.83 0-1.5-.68-1.5-1.5 0-.84.67-1.5 1.5-1.5.82 0 1.5.66 1.5 1.5zm0-6.02c0 .83-.68 1.5-1.5 1.5-.83 0-1.5-.67-1.5-1.5s.67-1.5 1.5-1.5c.82 0 1.5.67 1.5 1.5zm0-6c0 .82-.68 1.5-1.5 1.5-.83 0-1.5-.68-1.5-1.5 0-.84.67-1.5 1.5-1.5.82 0 1.5.66 1.5 1.5zm0-6.02c0 .83-.68 1.5-1.5 1.5-.83 0-1.5-.67-1.5-1.5s.67-1.5 1.5-1.5c.82 0 1.5.67 1.5 1.5zm0-6c0 .8-.68 1.5-1.5 1.5-.83 0-1.5-.7-1.5-1.5 0-.84.67-1.5 1.5-1.5.82 0 1.5.66 1.5 1.5zm0-6.03c0 .83-.68 1.5-1.5 1.5-.83 0-1.5-.67-1.5-1.5 0-.82.67-1.5 1.5-1.5.82 0 1.5.68 1.5 1.5zm0-6c0 .82-.68 1.5-1.5 1.5-.83 0-1.5-.68-1.5-1.5 0-.84.67-1.5 1.5-1.5.82 0 1.5.66 1.5 1.5zm0-6.02c0 .83-.68 1.5-1.5 1.5-.83 0-1.5-.67-1.5-1.5s.67-1.5 1.5-1.5c.82 0 1.5.67 1.5 1.5zm0-6c0 .82-.68 1.5-1.5 1.5-.83 0-1.5-.68-1.5-1.5 0-.84.67-1.5 1.5-1.5.82 0 1.5.66 1.5 1.5zm0-6.02c0 .82-.68 1.5-1.5 1.5-.83 0-1.5-.68-1.5-1.5 0-.83.67-1.5 1.5-1.5.82 0 1.5.67 1.5 1.5zm0-6.02c0 .83-.68 1.5-1.5 1.5-.83 0-1.5-.67-1.5-1.5 0-.82.67-1.5 1.5-1.5.82 0 1.5.68 1.5 1.5zm0-6c0 .82-.68 1.5-1.5 1.5-.83 0-1.5-.68-1.5-1.5 0-.84.67-1.5 1.5-1.5.82 0 1.5.66 1.5 1.5zm0-6.02c0 .83-.68 1.5-1.5 1.5-.83 0-1.5-.67-1.5-1.5s.67-1.5 1.5-1.5c.82 0 1.5.67 1.5 1.5zm0-6c0 .82-.68 1.5-1.5 1.5-.83 0-1.5-.68-1.5-1.5 0-.84.67-1.5 1.5-1.5.82 0 1.5.66 1.5 1.5z" fill="#0e76d4"/><path d="M847.64-962.2h36v36h-36v-36z" fill-opacity="0"/><path d="M848.14-962.2c0 .3-.23.5-.5.5-.28 0-.5-.2-.5-.5 0-.27.22-.5.5-.5.27 0 .5.23.5.5zm6 0c0 .3-.23.5-.5.5-.28 0-.5-.2-.5-.5 0-.27.22-.5.5-.5.27 0 .5.23.5.5zm6 0c0 .3-.23.5-.5.5-.28 0-.5-.2-.5-.5 0-.27.22-.5.5-.5.27 0 .5.23.5.5zm6 0c0 .3-.23.5-.5.5-.28 0-.5-.2-.5-.5 0-.27.22-.5.5-.5.27 0 .5.23.5.5zm6 0c0 .3-.23.5-.5.5-.28 0-.5-.2-.5-.5 0-.27.22-.5.5-.5.27 0 .5.23.5.5zm6 0c0 .3-.23.5-.5.5-.28 0-.5-.2-.5-.5 0-.27.22-.5.5-.5.27 0 .5.23.5.5zm6 0c0 .3-.23.5-.5.5-.28 0-.5-.2-.5-.5 0-.27.22-.5.5-.5.27 0 .5.23.5.5zm0 6c0 .3-.23.5-.5.5-.28 0-.5-.2-.5-.5 0-.27.22-.5.5-.5.27 0 .5.23.5.5zm0 6c0 .3-.23.5-.5.5-.28 0-.5-.2-.5-.5 0-.27.22-.5.5-.5.27 0 .5.23.5.5zm0 6c0 .3-.23.5-.5.5-.28 0-.5-.2-.5-.5 0-.27.22-.5.5-.5.27 0 .5.23.5.5zm0 6c0 .3-.23.5-.5.5-.28 0-.5-.2-.5-.5 0-.27.22-.5.5-.5.27 0 .5.23.5.5zm0 6c0 .3-.23.5-.5.5-.28 0-.5-.2-.5-.5 0-.27.22-.5.5-.5.27 0 .5.23.5.5zm0 6c0 .3-.23.5-.5.5-.28 0-.5-.2-.5-.5 0-.27.22-.5.5-.5.27 0 .5.23.5.5zm-6 0c0 .3-.23.5-.5.5-.28 0-.5-.2-.5-.5 0-.27.22-.5.5-.5.27 0 .5.23.5.5zm-6 0c0 .3-.23.5-.5.5-.28 0-.5-.2-.5-.5 0-.27.22-.5.5-.5.27 0 .5.23.5.5zm-6 0c0 .3-.23.5-.5.5-.28 0-.5-.2-.5-.5 0-.27.22-.5.5-.5.27 0 .5.23.5.5zm-6 0c0 .3-.23.5-.5.5-.28 0-.5-.2-.5-.5 0-.27.22-.5.5-.5.27 0 .5.23.5.5zm-6 0c0 .3-.23.5-.5.5-.28 0-.5-.2-.5-.5 0-.27.22-.5.5-.5.27 0 .5.23.5.5zm-6 0c0 .3-.23.5-.5.5-.28 0-.5-.2-.5-.5 0-.27.22-.5.5-.5.27 0 .5.23.5.5zm0-6c0 .3-.23.5-.5.5-.28 0-.5-.2-.5-.5 0-.27.22-.5.5-.5.27 0 .5.23.5.5zm0-6c0 .3-.23.5-.5.5-.28 0-.5-.2-.5-.5 0-.27.22-.5.5-.5.27 0 .5.23.5.5zm0-6c0 .3-.23.5-.5.5-.28 0-.5-.2-.5-.5 0-.27.22-.5.5-.5.27 0 .5.23.5.5zm0-6c0 .3-.23.5-.5.5-.28 0-.5-.2-.5-.5 0-.27.22-.5.5-.5.27 0 .5.23.5.5zm0-6c0 .3-.23.5-.5.5-.28 0-.5-.2-.5-.5 0-.27.22-.5.5-.5.27 0 .5.23.5.5z" fill-opacity="0"/><path d="M868.75-928.36c.02.64-.48 1.15-1.1 1.15h-17.73c-.63 0-1.13-.52-1.13-1.13V-960.03c-.02-.65.47-1.16 1.1-1.16h17.74c.62 0 1.12.5 1.13 1.1v.07z" fill="url(#e)"/><path d="M869.25-928.36c0 .27-.22.5-.5.5-.27 0-.5-.23-.5-.5 0-.28.23-.5.5-.5.28 0 .5.22.5.5zm-7.03 1.15c0 .27-.23.5-.5.5-.28 0-.5-.23-.5-.5 0-.28.22-.5.5-.5.27 0 .5.22.5.5zm-5.9 0c0 .27-.23.5-.5.5-.28 0-.5-.23-.5-.5 0-.28.22-.5.5-.5.27 0 .5.22.5.5zm-5.9 0c0 .27-.23.5-.5.5-.28 0-.5-.23-.5-.5 0-.28.22-.5.5-.5.27 0 .5.22.5.5zm-1.13-7.5c0 .28-.23.5-.5.5-.28 0-.5-.22-.5-.5 0-.27.22-.5.5-.5.27 0 .5.23.5.5zm0-6.33c0 .28-.23.5-.5.5-.28 0-.5-.22-.5-.5s.22-.5.5-.5c.27 0 .5.22.5.5zm0-6.34c0 .28-.23.5-.5.5-.28 0-.5-.22-.5-.5 0-.27.22-.5.5-.5.27 0 .5.23.5.5zm0-6.33c0 .28-.23.5-.5.5-.28 0-.5-.22-.5-.5s.22-.5.5-.5c.27 0 .5.22.5.5zm0-6.33c0 .27-.23.5-.5.5-.28 0-.5-.23-.5-.5 0-.28.22-.5.5-.5.27 0 .5.22.5.5zm7.02-1.16c0 .3-.22.5-.5.5s-.5-.2-.5-.5c0-.27.22-.5.5-.5s.5.23.5.5zm5.9 0c0 .3-.22.5-.5.5-.27 0-.5-.2-.5-.5 0-.27.23-.5.5-.5.28 0 .5.23.5.5zm5.92 0c0 .3-.23.5-.5.5-.28 0-.5-.2-.5-.5 0-.27.22-.5.5-.5.27 0 .5.23.5.5zm1.13 7.5c0 .28-.22.5-.5.5-.27 0-.5-.22-.5-.5s.23-.5.5-.5c.28 0 .5.22.5.5zm0 6.34c0 .27-.23.5-.5.5-.28 0-.5-.23-.5-.5 0-.28.22-.5.5-.5.27 0 .5.22.5.5zm0 6.33c0 .28-.23.5-.5.5-.28 0-.5-.22-.5-.5s.22-.5.5-.5c.27 0 .5.22.5.5zm0 6.33c0 .28-.24.5-.5.5-.3 0-.5-.22-.5-.5 0-.27.2-.5.5-.5.26 0 .5.23.5.5zm0 6.34c0 .27-.24.5-.5.5-.3 0-.5-.23-.5-.5 0-.28.2-.5.5-.5.26 0 .5.22.5.5z" fill-opacity="0"/><path d="M851.63-949.26c0-1.2.96-2.17 2.16-2.17h10.1c1.16.04 2.1 1 2.1 2.17 0 1.2-.95 2.18-2.14 2.2h-10.02c-1.22 0-2.2-.97-2.2-2.18v-.02z" fill="#003067"/><path d="M852.13-949.26c0 .28-.22.5-.5.5-.27 0-.5-.22-.5-.5 0-.27.23-.5.5-.5.28 0 .5.23.5.5zm7.26-2.16c0 .27-.23.5-.5.5-.28 0-.5-.23-.5-.5 0-.28.22-.5.5-.5.27 0 .5.22.5.5zm5 0c0 .27-.23.5-.5.5-.28 0-.5-.23-.5-.5 0-.28.22-.5.5-.5.27 0 .5.22.5.5zm-5.06 4.35c0 .28-.23.5-.5.5-.28 0-.5-.22-.5-.5s.22-.5.5-.5c.27 0 .5.22.5.5zm-5 0c0 .28-.24.5-.5.5-.3 0-.5-.22-.5-.5s.2-.5.5-.5c.26 0 .5.22.5.5z" fill-opacity="0"/><path d="M851.63-955.72c0-1.2.98-2.2 2.2-2.2h10.06c1.18.05 2.1 1.02 2.1 2.2 0 1.2-.97 2.17-2.16 2.17h-10c-1.2.02-2.18-.93-2.2-2.13v-.04z" fill="#003067"/><path d="M852.13-955.72c0 .28-.22.5-.5.5-.27 0-.5-.22-.5-.5s.23-.5.5-.5c.28 0 .5.22.5.5zm7.26-2.2c0 .3-.23.5-.5.5-.28 0-.5-.2-.5-.5 0-.26.22-.5.5-.5.27 0 .5.24.5.5zm5 0c0 .3-.23.5-.5.5-.28 0-.5-.2-.5-.5 0-.26.22-.5.5-.5.27 0 .5.24.5.5zm-5.06 4.37c0 .28-.23.5-.5.5-.28 0-.5-.22-.5-.5s.22-.5.5-.5c.27 0 .5.22.5.5zm-5 0c0 .28-.24.5-.5.5-.3 0-.5-.22-.5-.5s.2-.5.5-.5c.26 0 .5.22.5.5z" fill-opacity="0"/><path d="M855.45-955.73c0 .8-.65 1.46-1.46 1.46-.82 0-1.47-.65-1.47-1.46 0-.8.65-1.46 1.46-1.46.8 0 1.45.67 1.45 1.47z" fill="#50e6ff"/><path d="M855.95-955.73c0 .28-.22.5-.5.5s-.5-.22-.5-.5c0-.27.22-.5.5-.5s.5.23.5.5z" fill-opacity="0"/><path d="M855.45-949.28c0 .8-.65 1.46-1.46 1.46-.82 0-1.47-.66-1.47-1.46 0-.8.65-1.46 1.46-1.46.8 0 1.45.65 1.45 1.46z" fill="#50e6ff"/><path d="M855.95-949.28c0 .27-.22.5-.5.5s-.5-.23-.5-.5c0-.28.22-.5.5-.5s.5.22.5.5z" fill-opacity="0"/><path d="M882.48-933.45c-.08-3.05-2.3-5.55-5.35-6-.13-4.3-3.67-7.66-7.98-7.58-3.5-.06-6.5 2.02-7.65 5.3-3.68.5-6.37 3.5-6.45 7.2.1 4.16 3.57 7.43 7.7 7.33H876.32c3.4-.06 6.16-2.8 6.18-6.25z" fill="url(#f)"/><path d="M882.98-933.45c0 .28-.22.5-.5.5-.27 0-.5-.22-.5-.5 0-.27.23-.5.5-.5.28 0 .5.23.5.5zm-5.35-6c0 .3-.22.5-.5.5-.27 0-.5-.2-.5-.5 0-.26.23-.5.5-.5.28 0 .5.24.5.5zm-2.42-5.43c0 .28-.22.5-.5.5-.27 0-.5-.22-.5-.5 0-.27.23-.5.5-.5.28 0 .5.23.5.5zm-5.55-2.15c0 .27-.22.5-.5.5-.27 0-.5-.23-.5-.5 0-.28.23-.5.5-.5.28 0 .5.22.5.5zm-4.7 1.42c0 .27-.2.5-.5.5-.26 0-.5-.23-.5-.5 0-.28.24-.5.5-.5.3 0 .5.22.5.5zm-2.95 3.88c0 .28-.23.5-.5.5-.28 0-.5-.22-.5-.5 0-.27.22-.5.5-.5.27 0 .5.23.5.5zm-4.5 2.45c0 .28-.23.5-.5.5-.3 0-.5-.22-.5-.5 0-.27.2-.5.5-.5.27 0 .5.23.5.5zm-1.95 4.73c0 .28-.22.5-.5.5-.27 0-.5-.22-.5-.5 0-.27.23-.5.5-.5.28 0 .5.23.5.5zm2.37 5.24c0 .28-.22.5-.5.5-.27 0-.5-.22-.5-.5s.23-.5.5-.5c.28 0 .5.22.5.5zm5.34 2.1c0 .28-.22.5-.5.5s-.5-.22-.5-.5c0-.27.22-.5.5-.5s.5.23.5.5zm6.94 0c0 .28-.22.5-.5.5s-.5-.22-.5-.5c0-.27.22-.5.5-.5s.5.23.5.5zm6.25 0c0 .28-.22.5-.5.5-.27 0-.5-.22-.5-.5 0-.27.23-.5.5-.5.28 0 .5.23.5.5zm4.6-2c0 .28-.23.5-.5.5-.28 0-.5-.22-.5-.5 0-.27.22-.5.5-.5.27 0 .5.23.5.5zm1.93-4.25c0 .28-.22.5-.5.5-.27 0-.5-.22-.5-.5 0-.27.23-.5.5-.5.28 0 .5.23.5.5z" fill-opacity="0"/><use xlink:href="#g" transform="matrix(1,0,0,1,913.6355052140326,-952.1906063574781) translate(0 14.4)"/><use xlink:href="#h" transform="matrix(1,0,0,1,913.6355052140326,-952.1906063574781) translate(77.95 14.4)"/><use xlink:href="#i" transform="matrix(1,0,0,1,913.6355052140326,-952.1906063574781) translate(114.95 14.4)"/><use xlink:href="#j" transform="matrix(1,0,0,1,913.6355052140326,-952.1906063574781) translate(0 36)"/><path d="M958.75-827.22l-3.92 3.98c-.7.74-1.83.74-2.54 0l-29.27-29.36c-1.38-1.4-1.38-3.66 0-5.1l3.96-3.98 31.78 31.93c.7.7.7 1.83 0 2.53z" stroke="#000" stroke-opacity="0" stroke-width=".71" fill="#50e6ff"/><path d="M954.17-886.74l3.97 4c.7.68.7 1.84 0 2.54l-31.18 31.6-3.97-4c-1.4-1.43-1.44-3.7-.04-5.1l28.67-29.04c.7-.73 1.84-.7 2.54 0z" stroke="#000" stroke-opacity="0" stroke-width=".71" fill="#1490df"/><path d="M1036.82-861.68l3.95 3.97c1.37 1.44 1.37 3.7 0 5.1l-29.17 29.36c-.7.74-1.86.74-2.57 0l-3.9-3.94c-.7-.74-.7-1.87 0-2.57l31.7-31.93z" stroke="#000" stroke-opacity="0" stroke-width=".71" fill="#50e6ff"/><path d="M1040.86-852.6l-3.96 4-31.18-31.6c-.7-.7-.7-1.86 0-2.55l3.97-4c.7-.72 1.82-.72 2.52 0l28.68 29.05c1.4 1.4 1.36 3.7-.04 5.1z" stroke="#000" stroke-opacity="0" stroke-width=".71" fill="#1490df"/><path d="M978.3-848.94h-24.08c-.67.1-1.27-.43-1.33-1.2 0-.2.05-.3.1-.53l28.92-57.56c.24-.54.67-.76 1.2-.76h28.5c.72 0 1.33.55 1.4 1.2 0 .33-.13.54-.25.76L978.84-862h33.08c.67 0 1.27.53 1.33 1.18 0 .33-.12.65-.36.87l-54.94 57.67c-.54.32-4.23 3.35-2.42-1.3z" stroke="#000" stroke-opacity="0" fill="url(#k)"/><path d="M1010.4-822.7h-33l35.52-37.26-1.07-2.07h-33l18.73-25.36h13.3l-5.14 7.13 24.75 25.04-25.35 25.5zm-57 0h11.76l13.1-26.26H954.2l-1.18-1.68 18.35-36.62v-.13l-18.44.08 5.24 7.05-24.76 25.04 25.35 25.42z" stroke="#000" stroke-opacity="0" fill-opacity="0"/><use xlink:href="#a" transform="matrix(1,0,0,1,891.9286191833139,-791.9859600138442) translate(33.074999999999996 14.4)"/><use xlink:href="#b" transform="matrix(1,0,0,1,891.9286191833139,-791.9859600138442) translate(87.975 14.4)"/><use xlink:href="#l" transform="matrix(1,0,0,1,891.9286191833139,-791.9859600138442) translate(117.92500000000001 14.4)"/><path d="M683.8-522.28h120v67.3c0 2.22-1.8 4-3.96 4H687.76c-2.16 0-3.96-1.78-3.96-4v-67.3z" stroke="#000" stroke-opacity="0" fill="url(#m)"/><path d="M696.57-515.2h95.48c2.7 0 4.04 1.32 4.04 4v49.05c0 2.68-1.36 4-4.05 4h-95.48c-2.7 0-4.04-1.32-4.04-4v-49.05c0-2.68 1.34-4 4.04-4z" stroke="#000" stroke-opacity="0" fill="#5ea0ef" fill-opacity=".6"/><path d="M687.76-547.98h112.08c2.16 0 3.96 1.8 3.96 4v21.7h-120v-21.67c0-2.23 1.8-4.03 3.96-4.03z" stroke="#000" stroke-opacity="0" fill="#005ba1"/><path d="M731.2-471.17l-2.1 2.15c-.38.37-1 .4-1.4.02v-.02l-15.5-15.67c-.75-.74-.75-1.97 0-2.74l2.17-2.15 16.83 17.05c.38.38.38 1 0 1.38zm24.37 0l2.1 2.15c.06 0 .06 0 .06.02.38.37.95.35 1.33-.02l15.5-15.67c.76-.74.76-1.97 0-2.74l-2.16-2.15-16.83 17.05c-.38.38-.38 1 0 1.38z" stroke="#000" stroke-opacity="0" fill="#fff" fill-opacity=".8"/><path d="M729.36-503.26l2.15 2.15c.4.37.4.98 0 1.36l-17.13 17.23-2.15-2.17c-.77-.76-.77-1.98 0-2.74L728-503.3c.38-.38.95-.36 1.34.02zm28.05 0l-2.14 2.15c-.4.37-.4 1 0 1.36l17.2 17.23 2.1-2.15c.76-.78.76-2 0-2.76l-15.8-15.86v-.02c-.4-.36-.97-.36-1.35.02zM738.22-463.54l-3.4-1.1c-.38-.1-.57-.52-.46-.9l13.9-43.7c.12-.38.48-.62.83-.48h.05l3.4 1.1c.36.1.57.48.48.8l-.02.05-13.92 43.8c-.1.38-.5.57-.83.43h-.03zM704.9-534.02c0 2.8-2.27 5.1-5.05 5.1-2.8 0-5.08-2.3-5.08-5.1s2.27-5.1 5.08-5.1c2.78 0 5.04 2.3 5.04 5.1zm10.87-5.1c-2.77 0-5.04 2.3-5.04 5.1s2.27 5.1 5.04 5.1c2.82 0 5.08-2.3 5.08-5.1s-2.26-5.1-5.08-5.1zm15.92 0c-2.78 0-5.05 2.3-5.05 5.1s2.27 5.1 5.04 5.1c2.8 0 5.07-2.3 5.07-5.1 0-2.82-2.27-5.1-5.08-5.1z" stroke="#000" stroke-opacity="0" fill="#fff"/><use xlink:href="#a" transform="matrix(1,0,0,1,653.8041457149343,-441.98119457680764) translate(29.574999999999996 14.4)"/><use xlink:href="#b" transform="matrix(1,0,0,1,653.8041457149343,-441.98119457680764) translate(84.475 14.4)"/><use xlink:href="#n" transform="matrix(1,0,0,1,653.8041457149343,-441.98119457680764) translate(114.42500000000001 14.4)"/><path d="M1364.1-795.75l5.7-6.15v-16.37h-28.55v16.37l5.7 6.15c.38.4.8.67 1.38.76h14.14c.63 0 1.2-.26 1.63-.75z" stroke="#000" stroke-opacity="0" fill="#cecece"/><path d="M1355.36-915c-1.84 0-3.36.1-5.2.3-22.85 2.62-39.15 23.3-36.55 46.14 1.95 17.4 18.58 25.53 23.28 47.6.34 1.63 1.68 2.7 3.28 2.7h30.4c1.6 0 2.95-1.07 3.28-2.7 4.8-22.07 21.17-30.2 23.27-47.6.18-1.84.26-3.4.26-5.22-.25-23.02-19.06-41.4-42-41.2zm-14.1 96.73" stroke="#000" stroke-opacity="0" fill="url(#o)"/><path d="M1372.73-891.7c-5.45.2-9.72 4.7-9.56 10.18v5.42h-14.85v-5.42-.26c0-5.5-4.5-9.93-10-9.93-5.4.2-9.66 4.7-9.5 10.18-.16 5.42 4.06 10 9.5 10.18h4.55v42.37c0 1.43 1.12 2.54 2.5 2.54 1.45 0 2.57-1.1 2.57-2.54v-42.37h15.23v42.37c0-1.37 1.18-2.55 2.56-2.55 1.4 0 2.5 1.18 2.5 2.55v-42.37h4.5c5.45-.2 9.73-4.76 9.5-10.18.17-5.5-4.1-10-9.5-10.2zm-29.86 15.6h-4.8c-2.8-.26-4.92-2.62-4.82-5.42-.1-2.8 2.03-5.23 4.8-5.5 2.84.27 4.93 2.7 4.82 5.5zm30.18 0h-4.8v-5.75c-.33-2.6 1.55-5.02 4.22-5.35 2.6-.26 5.02 1.57 5.34 4.24.06.4.06.72 0 1.1.33 2.88-1.7 5.43-4.53 5.76h-.22z" stroke="#000" stroke-opacity="0" fill="url(#p)"/><path d="M1341-807l28.8-5.57v-3.18l-28.8 5.65v3.1zM1369.8-804.84v-3.1l-28.8 5.7v.3l2.2 2.4 26.6-5.3z" stroke="#000" stroke-opacity="0" fill="#999"/><use xlink:href="#q" transform="matrix(1,0,0,1,1283.3625738751732,-785.9859600138442) translate(28.074999999999996 14.4)"/><use xlink:href="#r" transform="matrix(1,0,0,1,1283.3625738751732,-785.9859600138442) translate(41.025 36)"/><path d="M445.6-881.77h120v70.75c0 2.24-1.8 4.03-3.96 4.03H449.56c-2.16 0-3.96-1.78-3.96-4.02v-70.75z" stroke="#000" stroke-opacity="0" fill="url(#s)"/><path d="M449.58-904h112.08c2.16 0 3.96 1.8 3.96 4.03v18.2h-120v-18.17c0-2.22 1.8-4.05 3.96-4.05z" stroke="#000" stroke-opacity="0" fill="#0078d4"/><path d="M540.4-867.52h-29.67c-.34 0-.62-.06-.9-.28l-8.56-5.64c-.27-.17-.54-.28-.82-.28h-24.97c-.88 0-1.56.72-1.56 1.62v52.7c0 .82.75 1.55 1.56 1.55h64.9c.9 0 1.58-.73 1.58-1.56v-46.5c0-.9-.68-1.62-1.57-1.62z" stroke="#000" stroke-opacity="0" fill="#5ea0ef"/><path d="M479.05-870.42h15.06c.47 0 .7.23.7.7v1.9c0 .47-.23.7-.7.7h-15.05c-.46 0-.7-.23-.7-.7v-1.9c0-.47.24-.7.7-.7z" stroke="#000" stroke-opacity="0" fill="#fff"/><path d="M478.83-870.42h2.34c.32 0 .47.15.47.47v2.36c0 .33-.15.48-.47.48h-2.34c-.3 0-.47-.15-.47-.47v-2.35c0-.3.15-.47.47-.47z" stroke="#000" stroke-opacity="0" fill="#0078d4"/><path d="M540.4-867.5h-32.67c-.4 0-.8.13-1.1.43l-5.23 5.32c-.33.3-.67.44-1.15.44h-24.77c-.88 0-1.56.7-1.56 1.58v40.28c0 .9.75 1.6 1.56 1.6h64.9c.9 0 1.58-.7 1.58-1.6v-46.48c0-.9-.68-1.6-1.57-1.6z" stroke="#000" stroke-opacity="0" fill="#fff" fill-opacity=".9"/><use xlink:href="#t" transform="matrix(1,0,0,1,415.59698012428737,-797.9859600138442) translate(37.625 14.4)"/><use xlink:href="#b" transform="matrix(1,0,0,1,415.59698012428737,-797.9859600138442) translate(80.525 14.4)"/><use xlink:href="#u" transform="matrix(1,0,0,1,415.59698012428737,-797.9859600138442) translate(110.47500000000001 14.4)"/><path d="M195.53-878.28h120v67.23c0 2.28-1.8 4.06-4.08 4.06H199.6c-2.27 0-4.07-1.77-4.07-4.05v-67.23z" stroke="#000" stroke-opacity="0" fill="url(#v)"/><path d="M199.6-904h111.85c2.28 0 4.08 1.8 4.08 4.05v21.67h-120V-900c0-2.2 1.8-4 4.08-4z" stroke="#000" stroke-opacity="0" fill="#37c2b1"/><path d="M211.87-870.52h87.32c1 .04 1.8.88 1.8 1.9v9.96c0 1.03-.8 1.87-1.8 1.9h-87.33c-1-.03-1.82-.87-1.82-1.9v-9.95c0-1.04.82-1.88 1.82-1.92z" stroke="#000" stroke-opacity="0" fill="#fff"/><path d="M211.97-850.73h87.34c1 .04 1.83.88 1.83 1.9v10.05c0 1.03-.82 1.88-1.82 1.92h-87.34c-1.1-.04-1.9-.9-1.9-1.92v-9.68c-.2-1.04.54-2.04 1.54-2.25.1-.02.18-.03.37-.03z" stroke="#000" stroke-opacity="0" fill="#37c2b1"/><path d="M211.87-830.65h87.32c1 .04 1.8.88 1.8 1.9v10.05c0 1.03-.8 1.88-1.8 1.92h-87.33c-1-.05-1.82-.9-1.82-1.92v-10.04c0-1.03.82-1.87 1.82-1.9z" stroke="#000" stroke-opacity="0" fill="#258277"/><use xlink:href="#w" transform="matrix(1,0,0,1,165.53241842426002,-797.9859600138442) translate(35.075 14.4)"/><use xlink:href="#x" transform="matrix(1,0,0,1,165.53241842426002,-797.9859600138442) translate(81.975 14.4)"/><use xlink:href="#y" transform="matrix(1,0,0,1,165.53241842426002,-797.9859600138442) translate(53 36)"/><path d="M469.65 312.05l24.02-24.15c1.1-1.13 2.9-1.13 4.02 0l24 24.15c.48.48.48 1.3 0 1.8-.25.23-.52.4-.9.4h-14.77c-.74 0-1.27.54-1.27 1.26v30.18c-.05.53-.47 1-1.06 1h-16.1c-.58 0-1.06-.47-1.06-1V315.5c0-.7-.58-1.24-1.26-1.24h-14.8c-.67-.06-1.2-.66-1.2-1.38 0-.3.16-.6.37-.83z" stroke="#000" stroke-opacity="0" fill="url(#z)"/><path d="M439.52 362.2h112.32c2.52 0 3.84 1.28 3.84 3.88v31.1c0 2.6-1.32 3.9-3.84 3.9H439.52c-2.52 0-3.84-1.3-3.84-3.9v-31.1c0-2.6 1.32-3.88 3.84-3.88z" stroke="#000" stroke-opacity="0" fill="url(#A)"/><path d="M457.22 372.1h16.8c1.08 0 1.62.56 1.62 1.65v16.9c0 1.1-.54 1.64-1.62 1.64h-16.8c-1.08 0-1.62-.55-1.62-1.64v-16.9c0-1.1.54-1.65 1.62-1.65z" stroke="#000" stroke-opacity="0" fill="#fff"/><path d="M487.22 372.1h16.8c1.08 0 1.62.56 1.62 1.65v16.9c0 1.1-.54 1.64-1.62 1.64h-16.8c-1.08 0-1.62-.55-1.62-1.64v-16.9c0-1.1.54-1.65 1.62-1.65zM517.22 372.1h16.8c1.08 0 1.62.56 1.62 1.65v16.9c0 1.1-.54 1.64-1.62 1.64h-16.8c-1.08 0-1.62-.55-1.62-1.64v-16.9c0-1.1.54-1.65 1.62-1.65z" stroke="#000" stroke-opacity="0" fill="#b4ec36"/><path d="M470.6 314.2v48h50.28v-48H506.1l-1.06-.3-.7 1.02.45.53v30.12l-1.02 1h-16.13l-1-1v-30.12l.4-.82-.76-.77-.92.34z" stroke="#000" stroke-opacity="0" fill-opacity="0"/><use xlink:href="#B" transform="matrix(1,0,0,1,405.6796722465547,410.06909599687447) translate(59.099999999999994 14.4)"/><path d="M299.2-435.05c-26.27 20.28-63.95 15.6-84.35-10.68-20.28-26.28-15.6-63.96 10.68-84.36l.6-.35c26.63-19.92 64.31-14.4 84.12 12.12 19.56 26.28 14.63 63.12-11.05 83.28" stroke="#000" stroke-opacity="0" fill="url(#C)"/><path d="M262.35-536.94c-30 0-54.36 24.35-54.36 54.36 0 30 24.35 54.36 54.35 54.36s54.36-24.35 54.36-54.36c0-30-24.34-54.36-54.35-54.36zm36.42 18.26c-5 2.83-9.56 4.57-15.22 5.66-1.95-7.18-4.56-12.94-8.8-19.03 9.46 2.28 17.07 6.52 24.02 13.37zm-36.42-15.22c2.72 0 5 .22 7.72.66 5.44 6.4 8.8 13.04 10.77 21.2-13.38 2.4-25.12 2.4-38.5 0 2.07-8.05 5.34-14.46 10.66-20.77 3.26-.66 6.1-1 9.35-1.1zm-14.13 1.85c-4.24 6.1-6.96 11.74-9.02 18.92-5-.98-9.03-2.72-13.38-5.44 6.53-6.63 13.48-10.87 22.4-13.48zm-23.16 84.8c4.03-2.7 7.83-4.35 12.5-5.32 1.85 7.4 4.8 13.26 9.57 19.24-8.8-2.83-15.76-7.18-22.07-13.92zm45.23 15.55c-2.73.44-5.12.54-7.95.44-3.6 0-6.63-.33-10.22-1.1-6.2-5.97-9.9-12.7-11.74-21.2 14.34-2.93 27.06-2.93 41.52 0-1.85 8.5-5.65 15.23-11.96 21.2zm5.2-1.1c4.9-6.07 7.94-12.16 9.8-19.77 5.2 1.2 9.45 2.93 14.13 5.87-6.85 6.95-14.46 11.3-23.92 13.6zm10.44-22.82c.55-2.5 1.1-5.1 1.42-7.83l-3.26.76c-.33 2.2-.66 4.36-1.2 6.43-14.9-3.05-28.05-3.05-43.05 0-.44-1.96-.87-4.02-1.2-6.1v-.64l-3.26-.88v1.96c0 2.28.75 4.35 1.2 6.4-5.23 1.2-9.58 3.06-14.15 6-16.2-19.47-15.87-47.3.76-66.44 4.8 3.05 9.26 4.9 14.8 6.1-.54 1.73-.98 3.58-1.3 5.32-.33 1.85 0 1.85-.55 2.6l3.26-.75v-1.2c.45-1.84.88-3.58 1.43-5.2 7.5 1.3 13.9 1.84 21.52 1.62 6.96 0 12.83-.54 19.68-1.85.44 1.96.98 4.03 1.42 5.98l3.26.87c-.54-2.6-1.08-4.9-1.73-7.06 6.08-1.42 10.98-3.26 16.3-6.53 16.97 19.36 17.18 47.62.44 67.08-5.1-3.25-9.88-5.3-15.75-6.84z" stroke="#000" stroke-opacity="0" fill="#5ea0ef"/><path d="M224.88-496.7c2.85-.42 5.3-.57 8.22-.57 4.55-.36 8.53.84 12.1 3.7 2.85 2.8 4.25 6.26 4.18 10.28.22 4.48-1.23 8.38-4.33 11.62-3.8 3.2-8.17 4.65-13.16 4.3-2.5.02-4.6-.1-7.1-.34zm3.9 26.34c1.36.12 2.52.12 3.9 0 .93.12 1.74.12 2.7 0 6.28-.78 10.75-6.5 9.97-12.78.07-.87.05-1.62-.08-2.5-.83-5.78-6.22-9.8-12.03-8.93-1.57-.18-2.9-.18-4.47 0zM254.32-467.66v-29.8h4.18l9.55 14.86c2.1 3.3 3.7 6.18 5.37 9.7-.36-3.97-.43-7.57-.43-12.25v-12.3h3.52v29.8h-3.88l-9.35-14.95c-2.05-3.33-4.02-7.08-5.58-9.9v25.05zM282.77-472.3c2.25 1.3 4.47 1.9 7.06 1.93 3.96 0 6.2-2.06 6.2-5.1 0-3.04-1.54-4.4-5.55-5.87-4.04-1.48-7.93-4.24-7.93-8.48.3-4.73 4.36-8.36 9.1-8.1.2.02.37.02.6.05 2.37-.06 4.4.37 6.54 1.42l-1.13 3.2c-1.8-1.02-3.58-1.45-5.65-1.42-4.1 0-5.65 2.4-5.65 4.42 0 2.06 1.84 4.18 5.92 5.75 4.1 1.53 7.63 4.36 7.63 8.75 0 4.36-3.4 8.54-10.44 8.54-2.8.02-5.14-.56-7.57-1.9z" stroke="#000" stroke-opacity="0" fill="#fff"/><use xlink:href="#D" transform="matrix(1,0,0,1,172.24511997652894,-413.4487761525477) translate(15.150000000000006 14.4)"/><use xlink:href="#E" transform="matrix(1,0,0,1,172.24511997652894,-413.4487761525477) translate(81 14.4)"/><use xlink:href="#F" transform="matrix(1,0,0,1,172.24511997652894,-413.4487761525477) translate(123.9 14.4)"/><path d="M519.36-237.63l-21.03 21.1c-.96.98-2.54.98-3.5 0l-21.03-21.1c-.4-.42-.4-1.15 0-1.56.23-.2.5-.3.8-.36h12.92c.6 0 1.1-.47 1.1-1.1V-267c0-.47.43-.9.9-.9h14.13c.46 0 .88.43.88.9v26.35c0 .62.5 1.1 1.1 1.1h12.94c.6.04 1.1.5 1.1 1.14 0 .3-.08.56-.3.77z" stroke="#000" stroke-opacity="0" fill="url(#G)"/><path d="M439.28-181.85h112.8c2.4 0 3.6 1.22 3.6 3.63v26.7c0 2.4-1.2 3.63-3.6 3.63h-112.8c-2.4 0-3.6-1.2-3.6-3.62v-26.7c0-2.4 1.2-3.63 3.6-3.63z" stroke="#000" stroke-opacity="0" fill="url(#H)"/><path d="M463.04-205.73h14.64c.97 0 1.44.48 1.44 1.45v14.74c0 .97-.47 1.45-1.44 1.45h-14.64c-.97 0-1.44-.47-1.44-1.44v-14.74c0-.97.47-1.45 1.44-1.45zM489.32-205.73h14.64c.97 0 1.44.48 1.44 1.45v14.74c0 .97-.47 1.45-1.44 1.45h-14.64c-.97 0-1.44-.47-1.44-1.44v-14.74c0-.97.47-1.45 1.44-1.45zM515.48-205.73h14.64c.97 0 1.44.48 1.44 1.45v14.74c0 .97-.47 1.45-1.44 1.45h-14.64c-.97 0-1.44-.47-1.44-1.44v-14.74c0-.97.47-1.45 1.44-1.45z" stroke="#000" stroke-opacity="0" fill="#86d633"/><path d="M476.12-174.3h14.64c.97 0 1.44.5 1.44 1.46v14.74c0 .97-.47 1.45-1.44 1.45h-14.64c-.97 0-1.44-.48-1.44-1.45v-14.74c0-.97.47-1.45 1.44-1.45zM502.4-174.3h14.64c.97 0 1.44.5 1.44 1.46v14.74c0 .97-.47 1.45-1.44 1.45H502.4c-.97 0-1.44-.48-1.44-1.45v-14.74c0-.97.47-1.45 1.44-1.45z" stroke="#000" stroke-opacity="0" fill="#b4ec36"/><path d="M519.42-237.65v31.85h-3.86l-1.47 1.45v14.75l2.5 1.45 15.08-1.56v7.73H461.6v-8.24l15.7 2.05 1.9-2.17v-13.53l-5.34-1.95v-31.85l21.03 21.05h3.5z" stroke="#000" stroke-opacity="0" fill-opacity="0"/><use xlink:href="#I" transform="matrix(1,0,0,1,405.67967224655473,-138.88977386177976) translate(17.64999999999999 14.4)"/><use xlink:href="#b" transform="matrix(1,0,0,1,405.67967224655473,-138.88977386177976) translate(66.6 14.4)"/><use xlink:href="#J" transform="matrix(1,0,0,1,405.67967224655473,-138.88977386177976) translate(96.55 14.4)"/><use xlink:href="#K" transform="matrix(1,0,0,1,405.67967224655473,-138.88977386177976) translate(139.45 14.4)"/><use xlink:href="#L" transform="matrix(1,0,0,1,405.67967224655473,-138.88977386177976) translate(44.525 36)"/><use xlink:href="#M" transform="matrix(1,0,0,1,405.67967224655473,-138.88977386177976) translate(87.525 36)"/><path d="M553.52 67.9l-52.44-52.8c-3-2.87-7.68-2.87-10.44 0l-11.52 11.3 13.68 13.67c.84-.36 2.04-.6 3.24-.6 5.04 0 9.12 4.08 9.12 9.12 0 1.2-.24 2.4-.6 3.35l13.32 13.32c.84-.36 2.16-.6 3.24-.6 5.04 0 9.24 4.08 9.24 9.12 0 5.03-4.2 9.23-9.24 9.23S512 78.83 512 73.8c0-1.2.24-2.4.6-3.25l-12.48-12.48V90.7c3 1.45 5.04 4.7 5.04 8.05 0 5.04-4.08 9.12-9.12 9.12-5.04 0-9.24-4.08-9.24-9.12 0-3.96 2.4-7.2 6-8.64V56.88c-3.6-1.08-6-4.68-6-8.52 0-1.2.36-2.4.6-3.24l-13.56-13.67-35.88 36.48c-3 2.9-3 7.7 0 10.33l52.44 52.44c3 3 7.68 3 10.32 0l52.44-52.44c3.36-2.88 3.36-7.68.36-10.32z" stroke="#000" stroke-opacity="0" fill="#0078d7"/><use xlink:href="#N" transform="matrix(1,0,0,1,405.67967224655473,141.94986866389308) translate(21.650000000000006 14.4)"/><use xlink:href="#J" transform="matrix(1,0,0,1,405.67967224655473,141.94986866389308) translate(51.60000000000001 14.4)"/><use xlink:href="#O" transform="matrix(1,0,0,1,405.67967224655473,141.94986866389308) translate(94.50000000000001 14.4)"/><use xlink:href="#P" transform="matrix(1,0,0,1,405.67967224655473,141.94986866389308) translate(122.4 14.4)"/><path d="M1299.98-855h-257.2" stroke="#3a414a" stroke-width="2" stroke-linejoin="round" fill="none"/><path d="M1315.25-855l-14.27 4.65v-9.27z" stroke="#3a414a" stroke-width="2" fill="#3a414a"/><path d="M1042.8-854h-1.17l.26-1.75-.13-.24h1.03z" stroke="#3a414a" stroke-width=".05" fill="#3a414a"/><path d="M746.73-566.17l.22-.68.83-2.25.95-2.24 1.06-2.26 1.2-2.3 1.33-2.3 1.5-2.37 1.68-2.43 1.9-2.5 2.14-2.57 2.42-2.7 2.76-2.8 3.17-2.97 3.66-3.17 4.3-3.4 5.1-3.72 6.2-4.1 7.72-4.68 10.07-5.52 14.28-7.06 27.17-12 65.63-27.9 14.3-7.07 10.05-5.52 7.73-4.67 6.2-4.1 5.1-3.7 4.3-3.4 3.67-3.18 3.17-2.97 2.76-2.8 2.42-2.7 2.14-2.57 1.9-2.5 1.68-2.42 1.5-2.35 1.34-2.32 1.2-2.3 1.06-2.25.94-2.25.84-2.24.22-.7" stroke="#3a414a" stroke-width="2" stroke-linejoin="round" fill="none"/><path d="M744.32-551.18l-2.3-14.82 9.14 1.47zM986.95-745.1l2.3 14.83-9.14-1.47z" stroke="#3a414a" stroke-width="2" fill="#3a414a"/><path d="M322.7-482.46l360.6-5.5" stroke="#3a414a" stroke-linejoin="round" fill="none"/><path d="M322.72-481.96h-.53v-1h.5zM683.8-487.48h-.5l-.02-1h.52z" stroke="#3a414a" stroke-width=".05" fill="#3a414a"/><path d="M334.03-855.5H444.6" stroke="#3a414a" stroke-width="2" fill="none"/><path d="M318.77-855.5l14.26-4.62v9.27z" stroke="#3a414a" stroke-width="2" fill="#3a414a"/><path d="M445.6-854.5h-1.03v-2h1.03z" stroke="#3a414a" stroke-width=".05" fill="#3a414a"/><path d="M762.48-237.63l-21.02 21.1c-.97.98-2.54.98-3.5 0l-21.03-21.1c-.42-.42-.42-1.15 0-1.56.23-.2.5-.3.78-.36h12.95c.6 0 1.1-.47 1.1-1.1V-267c0-.47.42-.9.9-.9h14.12c.47 0 .88.43.88.9v26.35c0 .62.5 1.1 1.1 1.1h12.95c.6.04 1.1.5 1.1 1.14 0 .3-.1.56-.32.77z" stroke="#000" stroke-opacity="0" fill="url(#Q)"/><path d="M682.4-181.85h112.8c2.4 0 3.6 1.22 3.6 3.63v26.7c0 2.4-1.2 3.63-3.6 3.63H682.4c-2.4 0-3.6-1.2-3.6-3.62v-26.7c0-2.4 1.2-3.63 3.6-3.63z" stroke="#000" stroke-opacity="0" fill="url(#R)"/><path d="M706.16-205.73h14.65c.97 0 1.44.48 1.44 1.45v14.74c0 .97-.47 1.45-1.43 1.45h-14.64c-.96 0-1.44-.47-1.44-1.44v-14.74c0-.97.48-1.45 1.44-1.45zM732.44-205.73h14.65c.95 0 1.42.48 1.42 1.45v14.74c0 .97-.47 1.45-1.43 1.45h-14.66c-.96 0-1.44-.47-1.44-1.44v-14.74c0-.97.48-1.45 1.44-1.45zM758.6-205.73h14.65c.96 0 1.43.48 1.43 1.45v14.74c0 .97-.47 1.45-1.43 1.45H758.6c-.96 0-1.44-.47-1.44-1.44v-14.74c0-.97.48-1.45 1.44-1.45z" stroke="#000" stroke-opacity="0" fill="#86d633"/><path d="M719.24-174.3h14.65c.95 0 1.42.5 1.42 1.46v14.74c0 .97-.47 1.45-1.43 1.45h-14.66c-.96 0-1.44-.48-1.44-1.45v-14.74c0-.97.48-1.45 1.44-1.45zM745.52-174.3h14.65c.96 0 1.43.5 1.43 1.46v14.74c0 .97-.47 1.45-1.43 1.45h-14.65c-.96 0-1.44-.48-1.44-1.45v-14.74c0-.97.48-1.45 1.44-1.45z" stroke="#000" stroke-opacity="0" fill="#b4ec36"/><path d="M762.54-237.65v31.85h-3.85l-1.5 1.45v14.75l2.54 1.45 15.06-1.56v7.73h-70.08v-8.24l15.7 2.05 1.9-2.17v-13.53l-5.33-1.95v-31.85l21 21.05h3.52z" stroke="#000" stroke-opacity="0" fill-opacity="0"/><use xlink:href="#S" transform="matrix(1,0,0,1,648.8041457149343,-138.88977386177976) translate(20.099999999999994 14.4)"/><use xlink:href="#T" transform="matrix(1,0,0,1,648.8041457149343,-138.88977386177976) translate(75 14.4)"/><use xlink:href="#U" transform="matrix(1,0,0,1,648.8041457149343,-138.88977386177976) translate(104.95 14.4)"/><use xlink:href="#V" transform="matrix(1,0,0,1,648.8041457149343,-138.88977386177976) translate(141.95 14.4)"/><use xlink:href="#W" transform="matrix(1,0,0,1,648.8041457149343,-138.88977386177976) translate(66.025 36)"/><path d="M1005.6-237.63l-21.02 21.1c-.97.98-2.54.98-3.5 0l-21.03-21.1c-.4-.42-.4-1.15 0-1.56.23-.2.5-.3.8-.36h12.92c.6 0 1.1-.47 1.1-1.1V-267c0-.47.43-.9.9-.9h14.13c.46 0 .88.43.88.9v26.35c0 .62.5 1.1 1.1 1.1h12.94c.6.04 1.1.5 1.1 1.14 0 .3-.08.56-.3.77z" stroke="#000" stroke-opacity="0" fill="url(#X)"/><path d="M925.53-181.85h112.8c2.4 0 3.6 1.22 3.6 3.63v26.7c0 2.4-1.2 3.63-3.6 3.63h-112.8c-2.4 0-3.6-1.2-3.6-3.62v-26.7c0-2.4 1.2-3.63 3.6-3.63z" stroke="#000" stroke-opacity="0" fill="url(#Y)"/><path d="M949.3-205.73h14.63c.97 0 1.44.48 1.44 1.45v14.74c0 .97-.47 1.45-1.44 1.45H949.3c-.98 0-1.45-.47-1.45-1.44v-14.74c0-.97.47-1.45 1.43-1.45zM975.57-205.73h14.64c.98 0 1.45.48 1.45 1.45v14.74c0 .97-.47 1.45-1.44 1.45h-14.63c-.97 0-1.44-.47-1.44-1.44v-14.74c0-.97.47-1.45 1.44-1.45zM1001.73-205.73h14.64c.97 0 1.44.48 1.44 1.45v14.74c0 .97-.46 1.45-1.43 1.45h-14.64c-.97 0-1.44-.47-1.44-1.44v-14.74c0-.97.46-1.45 1.43-1.45z" stroke="#000" stroke-opacity="0" fill="#86d633"/><path d="M962.37-174.3H977c.98 0 1.45.5 1.45 1.46v14.74c0 .97-.47 1.45-1.44 1.45h-14.63c-.97 0-1.44-.48-1.44-1.45v-14.74c0-.97.47-1.45 1.44-1.45zM988.64-174.3h14.65c.96 0 1.43.5 1.43 1.46v14.74c0 .97-.47 1.45-1.44 1.45h-14.65c-.97 0-1.44-.48-1.44-1.45v-14.74c0-.97.48-1.45 1.44-1.45z" stroke="#000" stroke-opacity="0" fill="#b4ec36"/><path d="M1005.66-237.65v31.85h-3.85l-1.46 1.45v14.75l2.52 1.45 15.07-1.56v7.73h-70.08v-8.24l15.7 2.05 1.9-2.17v-13.53l-5.34-1.95v-31.85l21.04 21.05h3.5z" stroke="#000" stroke-opacity="0" fill-opacity="0"/><use xlink:href="#a" transform="matrix(1,0,0,1,891.9286191833138,-138.88977386177976) translate(21.599999999999994 14.4)"/><use xlink:href="#b" transform="matrix(1,0,0,1,891.9286191833138,-138.88977386177976) translate(76.5 14.4)"/><use xlink:href="#Z" transform="matrix(1,0,0,1,891.9286191833138,-138.88977386177976) translate(106.45 14.4)"/><use xlink:href="#aa" transform="matrix(1,0,0,1,891.9286191833138,-138.88977386177976) translate(140.45 14.4)"/><use xlink:href="#M" transform="matrix(1,0,0,1,891.9286191833138,-138.88977386177976) translate(66.025 36)"/><path d="M796.64 67.9L744.2 15.1c-3-2.87-7.68-2.87-10.44 0l-11.52 11.3 13.68 13.67c.84-.36 2.04-.6 3.24-.6 5.04 0 9.12 4.08 9.12 9.12 0 1.2-.24 2.4-.6 3.35L761 65.27c.84-.36 2.16-.6 3.24-.6 5.04 0 9.24 4.08 9.24 9.12 0 5.03-4.2 9.23-9.24 9.23s-9.12-4.2-9.12-9.24c0-1.2.24-2.4.6-3.25l-12.48-12.48V90.7c3 1.45 5.04 4.7 5.04 8.05 0 5.04-4.08 9.12-9.12 9.12-5.04 0-9.24-4.08-9.24-9.12 0-3.96 2.4-7.2 6-8.64V56.88c-3.6-1.08-6-4.68-6-8.52 0-1.2.36-2.4.6-3.24l-13.56-13.67-35.88 36.48c-3 2.9-3 7.7 0 10.33l52.44 52.44c3 3 7.68 3 10.32 0l52.44-52.44c3.36-2.88 3.36-7.68.36-10.32z" stroke="#000" stroke-opacity="0" fill="#0078d7"/><use xlink:href="#S" transform="matrix(1,0,0,1,648.8041457149343,141.94986866389308) translate(7.599999999999994 14.4)"/><use xlink:href="#T" transform="matrix(1,0,0,1,648.8041457149343,141.94986866389308) translate(62.5 14.4)"/><use xlink:href="#U" transform="matrix(1,0,0,1,648.8041457149343,141.94986866389308) translate(92.45 14.4)"/><use xlink:href="#ab" transform="matrix(1,0,0,1,648.8041457149343,141.94986866389308) translate(129.45 14.4)"/><path d="M1039.77 60.65l-52.44-52.8c-3-2.88-7.68-2.88-10.44 0l-11.53 11.28 13.68 13.68c.84-.35 2.04-.6 3.24-.6 5.03 0 9.1 4.1 9.1 9.13 0 1.2-.23 2.4-.6 3.36l13.33 13.3c.84-.35 2.16-.6 3.24-.6 5.04 0 9.24 4.1 9.24 9.13 0 5.04-4.2 9.24-9.23 9.24-5.04 0-9.12-4.2-9.12-9.24 0-1.2.24-2.4.6-3.24l-12.48-12.5v32.65c3 1.44 5.04 4.68 5.04 8.04 0 5.03-4.07 9.1-9.1 9.1-5.05 0-9.25-4.07-9.25-9.1 0-3.97 2.4-7.2 6-8.65V49.6c-3.6-1.07-6-4.67-6-8.5 0-1.2.36-2.4.6-3.25L960.1 24.17l-35.9 36.48c-3 2.88-3 7.68 0 10.32l52.45 52.44c3 3 7.68 3 10.32 0l52.44-52.43c3.37-2.88 3.37-7.68.37-10.32z" stroke="#000" stroke-opacity="0" fill="#0078d7"/><use xlink:href="#a" transform="matrix(1,0,0,1,891.9286191833139,134.6873144430799) translate(9.099999999999994 14.4)"/><use xlink:href="#b" transform="matrix(1,0,0,1,891.9286191833139,134.6873144430799) translate(64 14.4)"/><use xlink:href="#Z" transform="matrix(1,0,0,1,891.9286191833139,134.6873144430799) translate(93.95 14.4)"/><use xlink:href="#ac" transform="matrix(1,0,0,1,891.9286191833139,134.6873144430799) translate(127.95 14.4)"/><path d="M495.32 12v-141.4" stroke="#3a414a" stroke-width="2" stroke-linejoin="round" fill="none"/><path d="M496.32 13.03l-.7-.08-1.3.2v-1.18h2z" stroke="#3a414a" stroke-width=".05" fill="#3a414a"/><path d="M495.32-144.65l4.63 14.26h-9.26z" stroke="#3a414a" stroke-width="2" fill="#3a414a"/><path d="M738.8-129.38V11.96" stroke="#3a414a" stroke-width="2" stroke-linejoin="round" fill="none"/><path d="M738.8-144.65l4.64 14.27h-9.27z" stroke="#3a414a" stroke-width="2" fill="#3a414a"/><path d="M739.8 13.07l-1.06-.12-.94.14v-1.17h2z" stroke="#3a414a" stroke-width=".05" fill="#3a414a"/><path d="M981.93-129.4V4.7" stroke="#3a414a" stroke-width="2" stroke-linejoin="round" fill="none"/><path d="M981.93-144.65l4.63 14.26h-9.27z" stroke="#3a414a" stroke-width="2" fill="#3a414a"/><path d="M982.93 5.8l-1.06-.1-.94.13V4.67h2z" stroke="#3a414a" stroke-width=".05" fill="#3a414a"/><path d="M495.7-268.9l9.56-519.6" stroke="#3a414a" stroke-width="2" stroke-linejoin="round" fill="none"/><path d="M496.7-268.9l-.02 1h-2l.02-1.04z" stroke="#3a414a" stroke-width=".05" fill="#3a414a"/><path d="M505.54-803.75l4.37 14.35-9.26-.17z" stroke="#3a414a" stroke-width="2" fill="#3a414a"/><path d="M738.82-268.9l1.18-64.54 3.2-99.05" stroke="#3a414a" stroke-width="2" stroke-linejoin="round" fill="none"/><path d="M739.82-268.9l-.02 1h-2l.02-1.04z" stroke="#3a414a" stroke-width=".05" fill="#3a414a"/><path d="M743.7-447.75l4.17 14.4-9.26-.3z" stroke="#3a414a" stroke-width="2" fill="#3a414a"/><path d="M712.77 321.27l24.03-24.14c1.1-1.14 2.9-1.14 4 0l24.04 24.14c.47.48.47 1.3 0 1.8-.27.23-.53.4-.9.4h-14.8c-.73 0-1.25.54-1.25 1.26v30.17c-.07.54-.5 1-1.07 1h-16.1c-.6 0-1.06-.46-1.06-1v-30.17c0-.72-.58-1.25-1.27-1.25h-14.78c-.7-.06-1.22-.66-1.22-1.37 0-.3.16-.6.37-.83z" stroke="#000" stroke-opacity="0" fill="url(#ad)"/><path d="M682.64 371.42h112.32c2.52 0 3.84 1.28 3.84 3.88v31.1c0 2.6-1.32 3.9-3.84 3.9H682.64c-2.52 0-3.84-1.3-3.84-3.9v-31.1c0-2.6 1.32-3.88 3.84-3.88z" stroke="#000" stroke-opacity="0" fill="url(#ae)"/><path d="M700.35 381.33h16.8c1.07 0 1.6.55 1.6 1.64v16.9c0 1.1-.53 1.64-1.6 1.64h-16.8c-1.1 0-1.63-.53-1.63-1.62v-16.9c0-1.1.54-1.65 1.63-1.65z" stroke="#000" stroke-opacity="0" fill="#fff"/><path d="M730.35 381.33h16.8c1.07 0 1.6.55 1.6 1.64v16.9c0 1.1-.53 1.64-1.6 1.64h-16.8c-1.1 0-1.63-.53-1.63-1.62v-16.9c0-1.1.54-1.65 1.63-1.65zM760.35 381.33h16.8c1.07 0 1.6.55 1.6 1.64v16.9c0 1.1-.53 1.64-1.6 1.64h-16.8c-1.1 0-1.63-.53-1.63-1.62v-16.9c0-1.1.54-1.65 1.63-1.65z" stroke="#000" stroke-opacity="0" fill="#b4ec36"/><path d="M713.72 323.42v48H764v-48h-14.78l-1.05-.3-.7 1.02.44.54v30.1l-1 1.02h-16.13l-1-1v-30.13l.4-.82-.76-.77-.9.34z" stroke="#000" stroke-opacity="0" fill-opacity="0"/><use xlink:href="#B" transform="matrix(1,0,0,1,648.8041457149343,419.28979337064084) translate(59.099999999999994 14.4)"/><path d="M955.9 312.05l24.02-24.15c1.1-1.13 2.9-1.13 4 0l24.04 24.15c.47.48.47 1.3 0 1.8-.26.23-.53.4-.9.4h-14.78c-.74 0-1.27.54-1.27 1.26v30.18c-.04.53-.47 1-1.05 1h-16.1c-.58 0-1.06-.47-1.06-1V315.5c0-.7-.6-1.24-1.27-1.24h-14.8c-.67-.06-1.2-.66-1.2-1.38 0-.3.16-.6.37-.83z" stroke="#000" stroke-opacity="0" fill="url(#af)"/><path d="M925.77 362.2h112.32c2.5 0 3.83 1.28 3.83 3.88v31.1c0 2.6-1.32 3.9-3.84 3.9H925.76c-2.52 0-3.84-1.3-3.84-3.9v-31.1c0-2.6 1.32-3.88 3.84-3.88z" stroke="#000" stroke-opacity="0" fill="url(#ag)"/><path d="M943.47 372.1h16.8c1.08 0 1.62.56 1.62 1.65v16.9c0 1.1-.55 1.64-1.63 1.64h-16.8c-1.08 0-1.62-.55-1.62-1.64v-16.9c0-1.1.54-1.65 1.62-1.65z" stroke="#000" stroke-opacity="0" fill="#fff"/><path d="M973.47 372.1h16.8c1.08 0 1.62.56 1.62 1.65v16.9c0 1.1-.55 1.64-1.63 1.64h-16.8c-1.08 0-1.62-.55-1.62-1.64v-16.9c0-1.1.54-1.65 1.62-1.65zM1003.47 372.1h16.8c1.08 0 1.62.56 1.62 1.65v16.9c0 1.1-.55 1.64-1.63 1.64h-16.8c-1.08 0-1.62-.55-1.62-1.64v-16.9c0-1.1.54-1.65 1.62-1.65z" stroke="#000" stroke-opacity="0" fill="#b4ec36"/><path d="M956.85 314.2v48h50.28v-48h-14.78l-1.06-.3-.7 1.02.44.53v30.12l-1 1h-16.15l-1-1v-30.12l.4-.82-.76-.77-.9.34z" stroke="#000" stroke-opacity="0" fill-opacity="0"/><use xlink:href="#B" transform="matrix(1,0,0,1,891.9286191833139,410.06909599687447) translate(59.099999999999994 14.4)"/><path d="M981.93 286.06v-141.9" stroke="#3a414a" stroke-width="2" stroke-linejoin="round" fill="none"/><path d="M982.93 287.48l-1-.43-1 .43v-1.45h2z" stroke="#3a414a" stroke-width=".05" fill="#3a414a"/><path d="M981.93 128.9l4.63 14.26h-9.27z" stroke="#3a414a" stroke-width="2" fill="#3a414a"/><path d="M739.88 151.28v144.45" stroke="#3a414a" stroke-width="2" stroke-linejoin="round" fill="none"/><path d="M739.88 136.02l4.64 14.26h-9.27z" stroke="#3a414a" stroke-width="2" fill="#3a414a"/><path d="M740.88 297.2l-.08-.1-1.92-.8v-.6h2z" stroke="#3a414a" stroke-width=".05" fill="#3a414a"/><path d="M496.76 151.28V286.5" stroke="#3a414a" stroke-width="2" stroke-linejoin="round" fill="none"/><path d="M496.76 136.02l4.63 14.26h-9.28z" stroke="#3a414a" stroke-width="2" fill="#3a414a"/><path d="M497.76 287.98l-.08-.1-1.92-.8v-.6h2z" stroke="#3a414a" stroke-width=".05" fill="#3a414a"/><path d="M322.25-154.63c0 6.92-2.05 12.4-6.13 16.5-6.72 6.7-16.3 6.84-17.16 6.84H286v-5.54l12.96.08c.13 0 8.17-.08 13.33-5.33 3-2.95 4.55-7.2 4.55-12.53 0-3.2-.97-8.13-8.65-12.84-3.95-2.5-7.68-3.27-9.12-3.57-1.44-.23-2.5-1.52-2.27-3.04-.48-5.7-3.12-9.8-7.44-11.1-3.6-1.06-7.44.23-9.84 3.35-.6.76-1.56 1.2-2.63 1.06-.97-.15-1.8-.83-2.17-1.82-1.7-4.55-4.1-8.43-7.2-11.4-3.84-3.72-14.4-11.7-29.28-5.62-8.53 3.5-15.25 13.53-15.25 22.8 0 1.07 0 2.06.13 3.12.24 1.3-.6 2.58-1.8 2.96-.13 0-.25.08-.37.08-5.03 1.3-13.3 5.1-13.3 16.5 0 8.66 4.9 13.44 9.1 15.95 1.33.83 3 1.28 4.7 1.28l16.66.08v5.47h-16.68c-2.63 0-5.28-.76-7.56-2.13-4.3-2.58-11.63-8.8-11.63-20.67 0-10.18 5.63-18 15.35-21.2 0-.46-.1-1-.1-1.45 0-11.55 8.03-23.56 18.7-27.9 12.37-5.08 25.56-2.57 35.17 6.7 2.75 2.74 5.03 6 6.95 9.8 3.6-2.73 8.3-3.57 12.73-2.2 5.88 1.82 9.95 7.14 11.03 14.44 3 .76 6.25 2.13 9 3.8 7.56 4.64 11.17 10.4 11.17 17.56zm-64.56-3.87l-9.73-9.88v37h-5.53v-36.7l-9.35 9.66-3.85-3.88 14.16-14.52c.48-.53 1.2-.83 1.92-.83s1.44.3 1.93.83l14.27 14.44zm33.35 5.7l3.83 3.95-14.27 14.44c-.48.52-1.2.83-1.92.83s-1.44-.3-1.92-.84l-14.15-14.53 3.84-3.87 9.37 9.58v-31.7h5.52v32zm-38.9 21.43v-5.47h19.34v5.55z" stroke="#000" stroke-opacity="0" fill="#232f3d"/><path d="M238.13-131.36l33.3.08h27.7l13-7.24 7.5-10.92-.67-14.3-18.24-9.76-5.93-12.03-8.8-2-9.22 2.45-15.16-17.42-18.02-2.58-16.64 9.22-7.4 16.4-1.72 6.85-11.63 10.4-.56 16.52 9.8 10.7z" stroke="#000" stroke-opacity="0" fill-opacity="0"/><g><use xlink:href="#ah" transform="matrix(1,0,0,1,172.24511997652894,-122.29251858899988) translate(59.525 14.4)"/></g><path d="M262.25-403.96v181.16" stroke="#3a414a" stroke-width="2" fill="none"/><path d="M262.25-419.23l4.63 14.27h-9.27zM262.25-207.53l-4.64-14.27h9.28z" stroke="#3a414a" stroke-width="2" fill="#3a414a"/><path d="M287.17 222.23c0 13.68-11.13 24.72-24.93 24.72-13.8 0-24.92-11.04-24.92-24.72 0-13.56 11.13-24.6 24.93-24.6 13.8 0 24.92 11.04 24.92 24.6m-6.68 33.12l-18.25 25.32L244 255.35h-26.25v62.28h89v-62.28z" stroke="#000" stroke-opacity="0" stroke-width="3" fill="#59b4d9"/><path d="M217.75 255.34v62.3h89v-62.3l-27.33-17.92 4.72-21.7-21.27-16.74-23.23 18.86 5.96 20.65z" stroke="#000" stroke-opacity="0" stroke-width="0" fill-opacity="0"/><g><use xlink:href="#ai" transform="matrix(1,0,0,1,187.74511997652894,326.62807244706187) translate(57.025 14.4)"/></g><path d="M262.25 179.12V-130.3" stroke="#3a414a" stroke-width="2" stroke-linejoin="round" fill="none"/><path d="M262.25 194.4l-4.64-14.28h9.28z" stroke="#3a414a" stroke-width="2" fill="#3a414a"/><path d="M263.25-131.3v1.02h-2v-1.03z" stroke="#3a414a" stroke-width=".05" fill="#3a414a"/><path d="M789 756.37c5.4 0 9.8-4.36 9.8-9.65v-1.13c-3.96-30.56-21.34-55.35-55-55.35s-51.48 21.03-54.9 55.4c-.1 0-.1.08-.1.08-.44 5.35 3.52 10.1 8.9 10.64H789z" stroke="#000" stroke-opacity="0" fill="url(#aj)"/><path d="M743.77 697.53c-6.2 0-11.5-1.54-16.7-4.88l16.7 42.84 16.42-42.6c-5.17 3.22-10.34 4.68-16.43 4.63z" stroke="#000" stroke-opacity="0" fill="#fff" fill-opacity=".8"/><path d="M774.7 666.9c0 16.87-13.78 30.55-30.8 30.55-17 0-30.8-13.68-30.8-30.54 0-16.85 13.8-30.53 30.8-30.53 17.02 0 30.8 13.68 30.8 30.54z" stroke="#000" stroke-opacity="0" fill="url(#ak)"/><g><use xlink:href="#N" transform="matrix(1,0,0,1,658.8041457149343,765.3701144311676) translate(30.074999999999996 14.4)"/><use xlink:href="#al" transform="matrix(1,0,0,1,658.8041457149343,765.3701144311676) translate(60.025 14.4)"/><use xlink:href="#am" transform="matrix(1,0,0,1,658.8041457149343,765.3701144311676) translate(109.92500000000001 14.4)"/><use xlink:href="#an" transform="matrix(1,0,0,1,658.8041457149343,765.3701144311676) translate(45.55 36)"/></g><path d="M743.8 635.37V428.8" stroke="#3a414a" stroke-width="2" stroke-linejoin="round" fill="none"/><path d="M744.8 636.44l-.9-.07-1.1.06v-1.08h2z" stroke="#3a414a" stroke-width=".05" fill="#3a414a"/><path d="M743.8 413.53l4.64 14.26h-9.27z" stroke="#3a414a" stroke-width="2" fill="#3a414a"/><path d="M770.06 695.5l5.08-9.06 6.1-9.85 6.68-9.9 7.43-10.03 8.4-10.4 9.7-11.03L825.18 623l15.56-14.95 81.8-72.62 9.2-9.62 7.28-8.27 6.05-7.5 5.17-6.97 4.5-6.64 3.98-6.43 3.53-6.3 3.16-6.22 2.84-6.22 2.54-6.25 2.27-6.33 2.02-6.47 1.77-6.66 1.53-6.9 1.28-7.18 1.02-7.54.4-4.38" stroke="#3a414a" stroke-width="2" stroke-linejoin="round" fill="none"/><path d="M770.94 695.96l-.5.88-1.75-.94.5-.92z" stroke="#3a414a" stroke-width=".05" fill="#3a414a"/><path d="M981.78 404.3l3.97 14.47-9.26-.43z" stroke="#3a414a" stroke-width="2" fill="#3a414a"/><path d="M496.53 419.55l.65 6.2 1.08 7.3 1.32 6.94 1.57 6.66 1.8 6.44 2.03 6.26 2.28 6.14 2.54 6.04 2.83 6 3.14 6 3.5 6.06 3.92 6.18 4.42 6.37 5.06 6.66 5.88 7.1 7 7.8 8.7 8.86 11.72 10.97 20.42 17.53 60.5 50.34 14.4 13.5 11.3 11.5 9.5 10.55 8.28 10 7.4 9.74 6.67 9.6 6.1 9.6 5.54 9.6" stroke="#3a414a" stroke-width="2" stroke-linejoin="round" fill="none"/><path d="M495.83 404.3l5.3 14.04-9.27.43z" stroke="#3a414a" stroke-width="2" fill="#3a414a"/><path d="M717.45 695.9l-1.76.95-.5-.9 1.75-.96z" stroke="#3a414a" stroke-width=".05" fill="#3a414a"/><path d="M903.53-855l-336.93-.5" stroke="#3a414a" stroke-width="2" stroke-linejoin="round" fill="none"/><path d="M918.8-855l-14.28 4.63.02-9.28z" stroke="#3a414a" stroke-width="2" fill="#3a414a"/><path d="M566.62-856.5v2h-1.02v-2z" stroke="#3a414a" stroke-width=".05" fill="#3a414a"/><path d="M497.43 747.7l-29.4-23.28 29.4-23.16v46.44zm-76.93-6.24V708.1l15.96 17.04-15.95 16.32zm77.64-76.32l-46.8 44.4-29.15-20.52-14.9 5.52v60.36l10.44 7.68 32.16-24.24 47.9 46.8 29.5-11.76v-96.12l-29.15-12.12z" stroke="#000" stroke-opacity="0" fill="#0078d7"/><g><use xlink:href="#ao" transform="matrix(1,0,0,1,377.3049429025268,794.1386902374215) translate(49.55 14.4)"/><use xlink:href="#ap" transform="matrix(1,0,0,1,377.3049429025268,794.1386902374215) translate(78.55 14.4)"/></g><path d="M716.07 695.5l-1.04-1.82-1.48-2.34-1.42-2.07-1.38-1.83-1.35-1.64-1.3-1.47-1.3-1.32-1.26-1.2-1.25-1.07-1.25-1-1.23-.9-1.23-.82-1.25-.74-1.24-.7-1.25-.62-1.27-.57-1.3-.52-1.32-.47-1.37-.4-1.4-.38-1.47-.3-1.52-.27-1.58-.2-1.67-.16-1.78-.07h-1.9l-2.03.07-2.2.18-2.43.3-2.67.44-3 .62-3.46.88-4.03 1.2-4.88 1.7-6.25 2.45-8.97 3.98-60.77 29.65-8.8 3.47-7.34 2.53-6.35 1.9-5.68 1.44-5.17 1.08-.53.1" stroke="#3a414a" stroke-width="2" stroke-linejoin="round" fill="none"/><path d="M717.45 695.9l-1.76.95-.5-.88 1.73-1z" stroke="#3a414a" stroke-width=".05" fill="#3a414a"/><path d="M530.53 726.03l13.76-5.97.87 9.23z" stroke="#3a414a" stroke-width="2" fill="#3a414a"/><path d="M987.25-729.77l-5.3 460.88" stroke="#3a414a" stroke-width="2" stroke-linejoin="round" fill="none"/><path d="M987.42-745.04l4.47 14.32-9.27-.1z" stroke="#3a414a" stroke-width="2" fill="#3a414a"/><path d="M982.94-268.9v1h-2v-1.03z" stroke="#3a414a" stroke-width=".05" fill="#3a414a"/><path d="M991.04-909l-.13-.98" stroke="#3a414a" stroke-width="2" stroke-linejoin="round" fill="none"/><path d="M985.15-908.5l13.84-5.8.75 9.25z" stroke="#3a414a" stroke-width="2" fill="#3a414a"/><path d="M992.05-909h-2.02l-.1-.88 1.97-.25z" stroke="#3a414a" stroke-width=".05" fill="#3a414a"/><defs><path d="M63-220v92h138v28H63V0H30v-248h175v28H63" id="aq"/><path d="M24 0v-261h32V0H24" id="ar"/><path d="M84 4C-5 8 30-112 23-190h32v120c0 31 7 50 39 49 72-2 45-101 50-169h31l1 190h-30c-1-10 1-25-2-33-11 22-28 36-60 37" id="as"/><path d="M100-194c63 0 86 42 84 106H49c0 40 14 67 53 68 26 1 43-12 49-29l28 8c-11 28-37 45-77 45C44 4 14-33 15-96c1-61 26-98 85-98zm52 81c6-60-76-77-97-28-3 7-6 17-6 28h103" id="at"/><path d="M117-194c89-4 53 116 60 194h-32v-121c0-31-8-49-39-48C34-167 62-67 57 0H25l-1-190h30c1 10-1 24 2 32 11-22 29-35 61-36" id="au"/><path d="M59-47c-2 24 18 29 38 22v24C64 9 27 4 27-40v-127H5v-23h24l9-43h21v43h35v23H59v120" id="av"/><g id="a"><use transform="matrix(0.05,0,0,0.05,0,0)" xlink:href="#aq"/><use transform="matrix(0.05,0,0,0.05,10.950000000000001,0)" xlink:href="#ar"/><use transform="matrix(0.05,0,0,0.05,14.9,0)" xlink:href="#as"/><use transform="matrix(0.05,0,0,0.05,24.900000000000002,0)" xlink:href="#at"/><use transform="matrix(0.05,0,0,0.05,34.900000000000006,0)" xlink:href="#au"/><use transform="matrix(0.05,0,0,0.05,44.900000000000006,0)" xlink:href="#av"/></g><path d="M212-179c-10-28-35-45-73-45-59 0-87 40-87 99 0 60 29 101 89 101 43 0 62-24 78-52l27 14C228-24 195 4 139 4 59 4 22-46 18-125c-6-104 99-153 187-111 19 9 31 26 39 46" id="aw"/><path d="M137 0h-34L2-248h35l83 218 83-218h36" id="ax"/><g id="b"><use transform="matrix(0.05,0,0,0.05,0,0)" xlink:href="#aw"/><use transform="matrix(0.05,0,0,0.05,12.950000000000001,0)" xlink:href="#ax"/></g><path d="M233-177c-1 41-23 64-60 70L243 0h-38l-65-103H63V0H30v-248c88 3 205-21 203 71zM63-129c60-2 137 13 137-47 0-61-80-42-137-45v92" id="ay"/><path d="M135-143c-3-34-86-38-87 0 15 53 115 12 119 90S17 21 10-45l28-5c4 36 97 45 98 0-10-56-113-15-118-90-4-57 82-63 122-42 12 7 21 19 24 35" id="az"/><path d="M100-194c62-1 85 37 85 99 1 63-27 99-86 99S16-35 15-95c0-66 28-99 85-99zM99-20c44 1 53-31 53-75 0-43-8-75-51-75s-53 32-53 75 10 74 51 75" id="aA"/><path d="M114-163C36-179 61-72 57 0H25l-1-190h30c1 12-1 29 2 39 6-27 23-49 58-41v29" id="aB"/><path d="M96-169c-40 0-48 33-48 73s9 75 48 75c24 0 41-14 43-38l32 2c-6 37-31 61-74 61-59 0-76-41-82-99-10-93 101-131 147-64 4 7 5 14 7 22l-32 3c-4-21-16-35-41-35" id="aC"/><g id="c"><use transform="matrix(0.05,0,0,0.05,0,0)" xlink:href="#ay"/><use transform="matrix(0.05,0,0,0.05,12.950000000000001,0)" xlink:href="#at"/><use transform="matrix(0.05,0,0,0.05,22.950000000000003,0)" xlink:href="#az"/><use transform="matrix(0.05,0,0,0.05,31.950000000000003,0)" xlink:href="#aA"/><use transform="matrix(0.05,0,0,0.05,41.95,0)" xlink:href="#as"/><use transform="matrix(0.05,0,0,0.05,51.95,0)" xlink:href="#aB"/><use transform="matrix(0.05,0,0,0.05,57.900000000000006,0)" xlink:href="#aC"/><use transform="matrix(0.05,0,0,0.05,66.9,0)" xlink:href="#at"/></g><path d="M143 4C61 4 22-44 18-125c-5-107 100-154 193-111 17 8 29 25 37 43l-32 9c-13-25-37-40-76-40-61 0-88 39-88 99 0 61 29 100 91 101 35 0 62-11 79-27v-45h-74v-28h105v86C228-13 192 4 143 4" id="aD"/><path d="M115-194c55 1 70 41 70 98S169 2 115 4C84 4 66-9 55-30l1 105H24l-1-265h31l2 30c10-21 28-34 59-34zm-8 174c40 0 45-34 45-75s-6-73-45-74c-42 0-51 32-51 76 0 43 10 73 51 73" id="aE"/><g id="d"><use transform="matrix(0.05,0,0,0.05,0,0)" xlink:href="#aD"/><use transform="matrix(0.05,0,0,0.05,14,0)" xlink:href="#aB"/><use transform="matrix(0.05,0,0,0.05,19.95,0)" xlink:href="#aA"/><use transform="matrix(0.05,0,0,0.05,29.950000000000003,0)" xlink:href="#as"/><use transform="matrix(0.05,0,0,0.05,39.95,0)" xlink:href="#aE"/></g><linearGradient gradientUnits="userSpaceOnUse" id="e" x1="865.62" y1="-926.19" x2="865.62" y2="-962.19"><stop offset="5%" stop-color="#949494"/><stop offset="36%" stop-color="#979797"/><stop offset="54%" stop-color="#9f9f9f"/><stop offset="69%" stop-color="#adadad"/><stop offset="73%" stop-color="#b3b3b3"/></linearGradient><linearGradient gradientUnits="userSpaceOnUse" id="f" x1="865.64" y1="-967.85" x2="865.64" y2="-918.18"><stop offset="18%" stop-color="#5ea0ef"/><stop offset="100%" stop-color="#0078d4"/></linearGradient><path d="M185-189c-5-48-123-54-124 2 14 75 158 14 163 119 3 78-121 87-175 55-17-10-28-26-33-46l33-7c5 56 141 63 141-1 0-78-155-14-162-118-5-82 145-84 179-34 5 7 8 16 11 25" id="aF"/><path d="M141-36C126-15 110 5 73 4 37 3 15-17 15-53c-1-64 63-63 125-63 3-35-9-54-41-54-24 1-41 7-42 31l-33-3c5-37 33-52 76-52 45 0 72 20 72 64v82c-1 20 7 32 28 27v20c-31 9-61-2-59-35zM48-53c0 20 12 33 32 33 41-3 63-29 60-74-43 2-92-5-92 41" id="aG"/><path d="M85-194c31 0 48 13 60 33l-1-100h32l1 261h-30c-2-10 0-23-3-31C134-8 116 4 85 4 32 4 16-35 15-94c0-66 23-100 70-100zm9 24c-40 0-46 34-46 75 0 40 6 74 45 74 42 0 51-32 51-76 0-42-9-74-50-73" id="aH"/><g id="g"><use transform="matrix(0.05,0,0,0.05,0,0)" xlink:href="#aF"/><use transform="matrix(0.05,0,0,0.05,12,0)" xlink:href="#av"/><use transform="matrix(0.05,0,0,0.05,17,0)" xlink:href="#aG"/><use transform="matrix(0.05,0,0,0.05,27,0)" xlink:href="#au"/><use transform="matrix(0.05,0,0,0.05,37,0)" xlink:href="#aH"/><use transform="matrix(0.05,0,0,0.05,47,0)" xlink:href="#aG"/><use transform="matrix(0.05,0,0,0.05,57,0)" xlink:href="#aB"/><use transform="matrix(0.05,0,0,0.05,62.95,0)" xlink:href="#aH"/></g><path d="M205 0l-28-72H64L36 0H1l101-248h38L239 0h-34zm-38-99l-47-123c-12 45-31 82-46 123h93" id="aI"/><g id="h"><use transform="matrix(0.05,0,0,0.05,0,0)" xlink:href="#aI"/><use transform="matrix(0.05,0,0,0.05,12,0)" xlink:href="#aE"/><use transform="matrix(0.05,0,0,0.05,22,0)" xlink:href="#aE"/></g><path d="M108 0H70L1-190h34L89-25l56-165h34" id="aJ"/><path d="M24-231v-30h32v30H24zM24 0v-190h32V0H24" id="aK"/><g id="i"><use transform="matrix(0.05,0,0,0.05,0,0)" xlink:href="#aF"/><use transform="matrix(0.05,0,0,0.05,12,0)" xlink:href="#at"/><use transform="matrix(0.05,0,0,0.05,22,0)" xlink:href="#aB"/><use transform="matrix(0.05,0,0,0.05,27.950000000000003,0)" xlink:href="#aJ"/><use transform="matrix(0.05,0,0,0.05,36.95,0)" xlink:href="#aK"/><use transform="matrix(0.05,0,0,0.05,40.900000000000006,0)" xlink:href="#aC"/><use transform="matrix(0.05,0,0,0.05,49.900000000000006,0)" xlink:href="#at"/></g><path d="M30-248c87 1 191-15 191 75 0 78-77 80-158 76V0H30v-248zm33 125c57 0 124 11 124-50 0-59-68-47-124-48v98" id="aL"/><g id="j"><use transform="matrix(0.05,0,0,0.05,0,0)" xlink:href="#aL"/><use transform="matrix(0.05,0,0,0.05,12,0)" xlink:href="#ar"/><use transform="matrix(0.05,0,0,0.05,15.949999999999998,0)" xlink:href="#aG"/><use transform="matrix(0.05,0,0,0.05,25.950000000000003,0)" xlink:href="#au"/></g><linearGradient gradientUnits="userSpaceOnUse" id="k" x1="981.38" y1="-801.8" x2="981.38" y2="-909.84"><stop offset="0%" stop-color="#fea11b"/><stop offset="28.4%" stop-color="#fea51a"/><stop offset="54.7%" stop-color="#feb018"/><stop offset="80%" stop-color="#ffc314"/><stop offset="100%" stop-color="#ffd70f"/></linearGradient><path d="M33 0v-248h34V0H33" id="aM"/><g id="l"><use transform="matrix(0.05,0,0,0.05,0,0)" xlink:href="#aI"/><use transform="matrix(0.05,0,0,0.05,12,0)" xlink:href="#aL"/><use transform="matrix(0.05,0,0,0.05,24,0)" xlink:href="#aM"/></g><linearGradient gradientUnits="userSpaceOnUse" id="m" x1="743.8" y1="-450.97" x2="743.8" y2="-547.99"><stop offset="0%" stop-color="#005ba1"/><stop offset="77.5%" stop-color="#0078d4"/></linearGradient><g id="n"><use transform="matrix(0.05,0,0,0.05,0,0)" xlink:href="#aI"/><use transform="matrix(0.05,0,0,0.05,12,0)" xlink:href="#aL"/><use transform="matrix(0.05,0,0,0.05,24,0)" xlink:href="#aL"/></g><radialGradient gradientUnits="userSpaceOnUse" id="o" fx="1355.36" fy="-854.98" cx="1355.36" cy="-854.98" r="56.23"><stop offset="0%" stop-color="#b77af4"/><stop offset="21%" stop-color="#b378f2"/><stop offset="43%" stop-color="#a672ed"/><stop offset="65%" stop-color="#9267e4"/><stop offset="88%" stop-color="#7559d8"/><stop offset="100%" stop-color="#624fd0"/></radialGradient><linearGradient gradientUnits="userSpaceOnUse" id="p" x1="1355.31" y1="-913.43" x2="1355.97" y2="-815.09"><stop offset="0%" stop-color="#f2f2f2"/><stop offset="23%" stop-color="#f1f1f2"/><stop offset="37%" stop-color="#ededf1"/><stop offset="48%" stop-color="#e7e5f0"/><stop offset="58%" stop-color="#dedbee"/><stop offset="67%" stop-color="#d3ceeb"/><stop offset="76%" stop-color="#c4bee8"/><stop offset="84%" stop-color="#b4abe5"/><stop offset="92%" stop-color="#a095e1"/><stop offset="99%" stop-color="#8b7ddc"/><stop offset="100%" stop-color="#897bdc"/></linearGradient><g id="q"><use transform="matrix(0.05,0,0,0.05,0,0)" xlink:href="#aI"/><use transform="matrix(0.05,0,0,0.05,12,0)" xlink:href="#aE"/><use transform="matrix(0.05,0,0,0.05,22,0)" xlink:href="#aE"/><use transform="matrix(0.05,0,0,0.05,32,0)" xlink:href="#ar"/><use transform="matrix(0.05,0,0,0.05,35.95,0)" xlink:href="#aK"/><use transform="matrix(0.05,0,0,0.05,39.900000000000006,0)" xlink:href="#aC"/><use transform="matrix(0.05,0,0,0.05,48.900000000000006,0)" xlink:href="#aG"/><use transform="matrix(0.05,0,0,0.05,58.900000000000006,0)" xlink:href="#av"/><use transform="matrix(0.05,0,0,0.05,63.900000000000006,0)" xlink:href="#aK"/><use transform="matrix(0.05,0,0,0.05,67.85000000000001,0)" xlink:href="#aA"/><use transform="matrix(0.05,0,0,0.05,77.85000000000001,0)" xlink:href="#au"/></g><path d="M177-190C167-65 218 103 67 71c-23-6-38-20-44-43l32-5c15 47 100 32 89-28v-30C133-14 115 1 83 1 29 1 15-40 15-95c0-56 16-97 71-98 29-1 48 16 59 35 1-10 0-23 2-32h30zM94-22c36 0 50-32 50-73 0-42-14-75-50-75-39 0-46 34-46 75s6 73 46 73" id="aN"/><path d="M106-169C34-169 62-67 57 0H25v-261h32l-1 103c12-21 28-36 61-36 89 0 53 116 60 194h-32v-121c2-32-8-49-39-48" id="aO"/><g id="r"><use transform="matrix(0.05,0,0,0.05,0,0)" xlink:href="#aM"/><use transform="matrix(0.05,0,0,0.05,5,0)" xlink:href="#au"/><use transform="matrix(0.05,0,0,0.05,15,0)" xlink:href="#az"/><use transform="matrix(0.05,0,0,0.05,24,0)" xlink:href="#aK"/><use transform="matrix(0.05,0,0,0.05,27.950000000000003,0)" xlink:href="#aN"/><use transform="matrix(0.05,0,0,0.05,37.95,0)" xlink:href="#aO"/><use transform="matrix(0.05,0,0,0.05,47.95,0)" xlink:href="#av"/><use transform="matrix(0.05,0,0,0.05,52.95,0)" xlink:href="#az"/></g><linearGradient gradientUnits="userSpaceOnUse" id="s" x1="505.6" y1="-806.99" x2="505.6" y2="-903.99"><stop offset="0%" stop-color="#32bedd"/><stop offset="77.5%" stop-color="#32d4f5"/></linearGradient><path d="M179-190L93 31C79 59 56 82 12 73V49c39 6 53-20 64-50L1-190h34L92-34l54-156h33" id="aP"/><path d="M210-169c-67 3-38 105-44 169h-31v-121c0-29-5-50-35-48C34-165 62-65 56 0H25l-1-190h30c1 10-1 24 2 32 10-44 99-50 107 0 11-21 27-35 58-36 85-2 47 119 55 194h-31v-121c0-29-5-49-35-48" id="aQ"/><g id="t"><use transform="matrix(0.05,0,0,0.05,0,0)" xlink:href="#aP"/><use transform="matrix(0.05,0,0,0.05,9,0)" xlink:href="#aG"/><use transform="matrix(0.05,0,0,0.05,19,0)" xlink:href="#aQ"/><use transform="matrix(0.05,0,0,0.05,33.95,0)" xlink:href="#ar"/></g><path d="M101-234c-31-9-42 10-38 44h38v23H63V0H32v-167H5v-23h27c-7-52 17-82 69-68v24" id="aR"/><g id="u"><use transform="matrix(0.05,0,0,0.05,0,0)" xlink:href="#aR"/><use transform="matrix(0.05,0,0,0.05,5,0)" xlink:href="#aK"/><use transform="matrix(0.05,0,0,0.05,8.95,0)" xlink:href="#ar"/><use transform="matrix(0.05,0,0,0.05,12.899999999999999,0)" xlink:href="#at"/><use transform="matrix(0.05,0,0,0.05,22.9,0)" xlink:href="#az"/></g><linearGradient gradientUnits="userSpaceOnUse" id="v" x1="255.53" y1="-807.08" x2="255.53" y2="-903.99"><stop offset="0%" stop-color="#b3b3b3"/><stop offset="26%" stop-color="#c1c1c1"/><stop offset="100%" stop-color="#e6e6e6"/></linearGradient><g id="w"><use transform="matrix(0.05,0,0,0.05,0,0)" xlink:href="#aG"/><use transform="matrix(0.05,0,0,0.05,10,0)" xlink:href="#av"/><use transform="matrix(0.05,0,0,0.05,15,0)" xlink:href="#aK"/><use transform="matrix(0.05,0,0,0.05,18.95,0)" xlink:href="#ar"/><use transform="matrix(0.05,0,0,0.05,22.9,0)" xlink:href="#aG"/><use transform="matrix(0.05,0,0,0.05,32.9,0)" xlink:href="#az"/></g><g id="x"><use transform="matrix(0.05,0,0,0.05,0,0)" xlink:href="#aF"/><use transform="matrix(0.05,0,0,0.05,12,0)" xlink:href="#av"/><use transform="matrix(0.05,0,0,0.05,17,0)" xlink:href="#aA"/><use transform="matrix(0.05,0,0,0.05,27,0)" xlink:href="#aB"/><use transform="matrix(0.05,0,0,0.05,32.95,0)" xlink:href="#aG"/><use transform="matrix(0.05,0,0,0.05,42.95,0)" xlink:href="#aN"/><use transform="matrix(0.05,0,0,0.05,52.95,0)" xlink:href="#at"/></g><g id="y"><use transform="matrix(0.05,0,0,0.05,0,0)" xlink:href="#aI"/><use transform="matrix(0.05,0,0,0.05,12,0)" xlink:href="#aC"/><use transform="matrix(0.05,0,0,0.05,21,0)" xlink:href="#aC"/><use transform="matrix(0.05,0,0,0.05,30,0)" xlink:href="#aA"/><use transform="matrix(0.05,0,0,0.05,40,0)" xlink:href="#as"/><use transform="matrix(0.05,0,0,0.05,50,0)" xlink:href="#au"/><use transform="matrix(0.05,0,0,0.05,60,0)" xlink:href="#av"/><use transform="matrix(0.05,0,0,0.05,65,0)" xlink:href="#az"/></g><linearGradient gradientUnits="userSpaceOnUse" id="z" x1="495.61" y1="401.11" x2="495.61" y2="287.07"><stop offset="0%" stop-color="#773adc"/><stop offset="22.9%" stop-color="#8952e5"/><stop offset="55%" stop-color="#9e6ff0"/><stop offset="73.5%" stop-color="#a67af4"/></linearGradient><linearGradient gradientUnits="userSpaceOnUse" id="A" x1="495.68" y1="401.07" x2="495.68" y2="287.07"><stop offset="0%" stop-color="#773adc"/><stop offset="73.5%" stop-color="#a67af4"/></linearGradient><g id="B"><use transform="matrix(0.05,0,0,0.05,0,0)" xlink:href="#aw"/><use transform="matrix(0.05,0,0,0.05,12.950000000000001,0)" xlink:href="#aA"/><use transform="matrix(0.05,0,0,0.05,22.950000000000003,0)" xlink:href="#aQ"/><use transform="matrix(0.05,0,0,0.05,37.900000000000006,0)" xlink:href="#aQ"/><use transform="matrix(0.05,0,0,0.05,52.85,0)" xlink:href="#aK"/><use transform="matrix(0.05,0,0,0.05,56.80000000000001,0)" xlink:href="#av"/></g><radialGradient gradientUnits="userSpaceOnUse" id="C" fx="263.85" fy="-481.12" cx="263.85" cy="-481.12" r="60.1"><stop offset="18%" stop-color="#5ea0ef"/><stop offset="100%" stop-color="#0078d4"/></radialGradient><path d="M33 0v-38h34V0H33" id="aS"/><g id="D"><use transform="matrix(0.05,0,0,0.05,0,0)" xlink:href="#aG"/><use transform="matrix(0.05,0,0,0.05,10,0)" xlink:href="#av"/><use transform="matrix(0.05,0,0,0.05,15,0)" xlink:href="#aK"/><use transform="matrix(0.05,0,0,0.05,18.95,0)" xlink:href="#ar"/><use transform="matrix(0.05,0,0,0.05,22.9,0)" xlink:href="#aG"/><use transform="matrix(0.05,0,0,0.05,32.9,0)" xlink:href="#az"/><use transform="matrix(0.05,0,0,0.05,41.9,0)" xlink:href="#aS"/><use transform="matrix(0.05,0,0,0.05,46.9,0)" xlink:href="#aK"/><use transform="matrix(0.05,0,0,0.05,50.85,0)" xlink:href="#aA"/></g><path d="M30-248c118-7 216 8 213 122C240-48 200 0 122 0H30v-248zM63-27c89 8 146-16 146-99s-60-101-146-95v194" id="aT"/><path d="M190 0L58-211 59 0H30v-248h39L202-35l-2-213h31V0h-41" id="aU"/><g id="E"><use transform="matrix(0.05,0,0,0.05,0,0)" xlink:href="#aT"/><use transform="matrix(0.05,0,0,0.05,12.950000000000001,0)" xlink:href="#aU"/><use transform="matrix(0.05,0,0,0.05,25.900000000000002,0)" xlink:href="#aF"/></g><path d="M209 0H11v-25l151-195H24v-28h176v25L50-27h159V0" id="aV"/><g id="F"><use transform="matrix(0.05,0,0,0.05,0,0)" xlink:href="#aV"/><use transform="matrix(0.05,0,0,0.05,10.950000000000001,0)" xlink:href="#aA"/><use transform="matrix(0.05,0,0,0.05,20.950000000000003,0)" xlink:href="#au"/><use transform="matrix(0.05,0,0,0.05,30.950000000000003,0)" xlink:href="#at"/></g><linearGradient gradientUnits="userSpaceOnUse" id="G" x1="495.67" y1="-267.89" x2="495.67" y2="-147.88"><stop offset="26.5%" stop-color="#a67af4"/><stop offset="45%" stop-color="#9e6ff0"/><stop offset="77.1%" stop-color="#8952e5"/><stop offset="100%" stop-color="#773adc"/></linearGradient><linearGradient gradientUnits="userSpaceOnUse" id="H" x1="495.68" y1="-147.86" x2="495.68" y2="-267.89"><stop offset="0%" stop-color="#773adc"/><stop offset="73.5%" stop-color="#a67af4"/></linearGradient><g id="I"><use transform="matrix(0.05,0,0,0.05,0,0)" xlink:href="#aR"/><use transform="matrix(0.05,0,0,0.05,5,0)" xlink:href="#ar"/><use transform="matrix(0.05,0,0,0.05,8.95,0)" xlink:href="#as"/><use transform="matrix(0.05,0,0,0.05,18.95,0)" xlink:href="#at"/><use transform="matrix(0.05,0,0,0.05,28.950000000000003,0)" xlink:href="#au"/><use transform="matrix(0.05,0,0,0.05,38.95,0)" xlink:href="#av"/></g><g id="J"><use transform="matrix(0.05,0,0,0.05,0,0)" xlink:href="#aP"/><use transform="matrix(0.05,0,0,0.05,9,0)" xlink:href="#aG"/><use transform="matrix(0.05,0,0,0.05,19,0)" xlink:href="#aQ"/><use transform="matrix(0.05,0,0,0.05,33.95,0)" xlink:href="#ar"/></g><g id="K"><use transform="matrix(0.05,0,0,0.05,0,0)" xlink:href="#aR"/><use transform="matrix(0.05,0,0,0.05,5,0)" xlink:href="#aK"/><use transform="matrix(0.05,0,0,0.05,8.95,0)" xlink:href="#ar"/><use transform="matrix(0.05,0,0,0.05,12.899999999999999,0)" xlink:href="#at"/></g><g id="L"><use transform="matrix(0.05,0,0,0.05,0,0)" xlink:href="#aC"/><use transform="matrix(0.05,0,0,0.05,9,0)" xlink:href="#aA"/><use transform="matrix(0.05,0,0,0.05,19,0)" xlink:href="#aE"/><use transform="matrix(0.05,0,0,0.05,29,0)" xlink:href="#aP"/></g><g id="M"><use transform="matrix(0.05,0,0,0.05,0,0)" xlink:href="#aG"/><use transform="matrix(0.05,0,0,0.05,10,0)" xlink:href="#aC"/><use transform="matrix(0.05,0,0,0.05,19,0)" xlink:href="#av"/><use transform="matrix(0.05,0,0,0.05,24,0)" xlink:href="#aK"/><use transform="matrix(0.05,0,0,0.05,27.950000000000003,0)" xlink:href="#aA"/><use transform="matrix(0.05,0,0,0.05,37.95,0)" xlink:href="#au"/></g><g id="N"><use transform="matrix(0.05,0,0,0.05,0,0)" xlink:href="#aw"/><use transform="matrix(0.05,0,0,0.05,12.950000000000001,0)" xlink:href="#ax"/></g><g id="O"><use transform="matrix(0.05,0,0,0.05,0,0)" xlink:href="#aR"/><use transform="matrix(0.05,0,0,0.05,5,0)" xlink:href="#aK"/><use transform="matrix(0.05,0,0,0.05,8.95,0)" xlink:href="#ar"/><use transform="matrix(0.05,0,0,0.05,12.899999999999999,0)" xlink:href="#at"/></g><g id="P"><use transform="matrix(0.05,0,0,0.05,0,0)" xlink:href="#aB"/><use transform="matrix(0.05,0,0,0.05,5.95,0)" xlink:href="#at"/><use transform="matrix(0.05,0,0,0.05,15.949999999999998,0)" xlink:href="#aE"/><use transform="matrix(0.05,0,0,0.05,25.950000000000003,0)" xlink:href="#aA"/></g><linearGradient gradientUnits="userSpaceOnUse" id="Q" x1="738.79" y1="-267.89" x2="738.79" y2="-147.88"><stop offset="26.5%" stop-color="#a67af4"/><stop offset="45%" stop-color="#9e6ff0"/><stop offset="77.1%" stop-color="#8952e5"/><stop offset="100%" stop-color="#773adc"/></linearGradient><linearGradient gradientUnits="userSpaceOnUse" id="R" x1="738.8" y1="-147.86" x2="738.8" y2="-267.89"><stop offset="0%" stop-color="#773adc"/><stop offset="73.5%" stop-color="#a67af4"/></linearGradient><g id="S"><use transform="matrix(0.05,0,0,0.05,0,0)" xlink:href="#aq"/><use transform="matrix(0.05,0,0,0.05,10.950000000000001,0)" xlink:href="#ar"/><use transform="matrix(0.05,0,0,0.05,14.9,0)" xlink:href="#as"/><use transform="matrix(0.05,0,0,0.05,24.900000000000002,0)" xlink:href="#at"/><use transform="matrix(0.05,0,0,0.05,34.900000000000006,0)" xlink:href="#au"/><use transform="matrix(0.05,0,0,0.05,44.900000000000006,0)" xlink:href="#av"/></g><g id="T"><use transform="matrix(0.05,0,0,0.05,0,0)" xlink:href="#aw"/><use transform="matrix(0.05,0,0,0.05,12.950000000000001,0)" xlink:href="#ax"/></g><g id="U"><use transform="matrix(0.05,0,0,0.05,0,0)" xlink:href="#aI"/><use transform="matrix(0.05,0,0,0.05,12,0)" xlink:href="#aE"/><use transform="matrix(0.05,0,0,0.05,22,0)" xlink:href="#aE"/></g><g id="V"><use transform="matrix(0.05,0,0,0.05,0,0)" xlink:href="#aw"/><use transform="matrix(0.05,0,0,0.05,12.950000000000001,0)" xlink:href="#aM"/></g><g id="W"><use transform="matrix(0.05,0,0,0.05,0,0)" xlink:href="#aG"/><use transform="matrix(0.05,0,0,0.05,10,0)" xlink:href="#aC"/><use transform="matrix(0.05,0,0,0.05,19,0)" xlink:href="#av"/><use transform="matrix(0.05,0,0,0.05,24,0)" xlink:href="#aK"/><use transform="matrix(0.05,0,0,0.05,27.950000000000003,0)" xlink:href="#aA"/><use transform="matrix(0.05,0,0,0.05,37.95,0)" xlink:href="#au"/></g><linearGradient gradientUnits="userSpaceOnUse" id="X" x1="981.92" y1="-267.89" x2="981.92" y2="-147.88"><stop offset="26.5%" stop-color="#a67af4"/><stop offset="45%" stop-color="#9e6ff0"/><stop offset="77.1%" stop-color="#8952e5"/><stop offset="100%" stop-color="#773adc"/></linearGradient><linearGradient gradientUnits="userSpaceOnUse" id="Y" x1="981.93" y1="-147.86" x2="981.93" y2="-267.89"><stop offset="0%" stop-color="#773adc"/><stop offset="73.5%" stop-color="#a67af4"/></linearGradient><g id="Z"><use transform="matrix(0.05,0,0,0.05,0,0)" xlink:href="#aI"/><use transform="matrix(0.05,0,0,0.05,12,0)" xlink:href="#aL"/><use transform="matrix(0.05,0,0,0.05,24,0)" xlink:href="#aM"/></g><g id="aa"><use transform="matrix(0.05,0,0,0.05,0,0)" xlink:href="#aw"/><use transform="matrix(0.05,0,0,0.05,12.950000000000001,0)" xlink:href="#aM"/></g><g id="ab"><use transform="matrix(0.05,0,0,0.05,0,0)" xlink:href="#ay"/><use transform="matrix(0.05,0,0,0.05,12.950000000000001,0)" xlink:href="#at"/><use transform="matrix(0.05,0,0,0.05,22.950000000000003,0)" xlink:href="#aE"/><use transform="matrix(0.05,0,0,0.05,32.95,0)" xlink:href="#aA"/></g><g id="ac"><use transform="matrix(0.05,0,0,0.05,0,0)" xlink:href="#ay"/><use transform="matrix(0.05,0,0,0.05,12.950000000000001,0)" xlink:href="#at"/><use transform="matrix(0.05,0,0,0.05,22.950000000000003,0)" xlink:href="#aE"/><use transform="matrix(0.05,0,0,0.05,32.95,0)" xlink:href="#aA"/></g><linearGradient gradientUnits="userSpaceOnUse" id="ad" x1="738.74" y1="410.33" x2="738.74" y2="296.29"><stop offset="0%" stop-color="#773adc"/><stop offset="22.9%" stop-color="#8952e5"/><stop offset="55%" stop-color="#9e6ff0"/><stop offset="73.5%" stop-color="#a67af4"/></linearGradient><linearGradient gradientUnits="userSpaceOnUse" id="ae" x1="738.8" y1="410.29" x2="738.8" y2="296.29"><stop offset="0%" stop-color="#773adc"/><stop offset="73.5%" stop-color="#a67af4"/></linearGradient><linearGradient gradientUnits="userSpaceOnUse" id="af" x1="981.86" y1="401.11" x2="981.86" y2="287.07"><stop offset="0%" stop-color="#773adc"/><stop offset="22.9%" stop-color="#8952e5"/><stop offset="55%" stop-color="#9e6ff0"/><stop offset="73.5%" stop-color="#a67af4"/></linearGradient><linearGradient gradientUnits="userSpaceOnUse" id="ag" x1="981.93" y1="401.07" x2="981.93" y2="287.07"><stop offset="0%" stop-color="#773adc"/><stop offset="73.5%" stop-color="#a67af4"/></linearGradient><g id="ah"><use transform="matrix(0.05,0,0,0.05,0,0)" xlink:href="#aM"/><use transform="matrix(0.05,0,0,0.05,5,0)" xlink:href="#au"/><use transform="matrix(0.05,0,0,0.05,15,0)" xlink:href="#av"/><use transform="matrix(0.05,0,0,0.05,20,0)" xlink:href="#at"/><use transform="matrix(0.05,0,0,0.05,30,0)" xlink:href="#aB"/><use transform="matrix(0.05,0,0,0.05,35.95,0)" xlink:href="#au"/><use transform="matrix(0.05,0,0,0.05,45.95,0)" xlink:href="#at"/><use transform="matrix(0.05,0,0,0.05,55.95,0)" xlink:href="#av"/></g><g id="ai"><use transform="matrix(0.05,0,0,0.05,0,0)" xlink:href="#as"/><use transform="matrix(0.05,0,0,0.05,10,0)" xlink:href="#az"/><use transform="matrix(0.05,0,0,0.05,19,0)" xlink:href="#at"/><use transform="matrix(0.05,0,0,0.05,29,0)" xlink:href="#aB"/></g><linearGradient gradientUnits="userSpaceOnUse" id="aj" x1="743.81" y1="621.72" x2="743.81" y2="786.04"><stop offset="22%" stop-color="#32d4f5" stop-opacity=".8"/><stop offset="100%" stop-color="#198ab3" stop-opacity=".8"/></linearGradient><linearGradient gradientUnits="userSpaceOnUse" id="ak" x1="739" y1="631.13" x2="750.89" y2="792.53"><stop offset="22%" stop-color="#32d4f5" stop-opacity=".8"/><stop offset="100%" stop-color="#198ab3" stop-opacity=".8"/></linearGradient><g id="al"><use transform="matrix(0.05,0,0,0.05,0,0)" xlink:href="#at"/><use transform="matrix(0.05,0,0,0.05,10,0)" xlink:href="#aH"/><use transform="matrix(0.05,0,0,0.05,20,0)" xlink:href="#aK"/><use transform="matrix(0.05,0,0,0.05,23.95,0)" xlink:href="#av"/><use transform="matrix(0.05,0,0,0.05,28.950000000000003,0)" xlink:href="#aA"/><use transform="matrix(0.05,0,0,0.05,38.95,0)" xlink:href="#aB"/></g><g id="am"><use transform="matrix(0.05,0,0,0.05,0,0)" xlink:href="#aG"/><use transform="matrix(0.05,0,0,0.05,10,0)" xlink:href="#au"/><use transform="matrix(0.05,0,0,0.05,20,0)" xlink:href="#aH"/></g><g id="an"><use transform="matrix(0.05,0,0,0.05,0,0)" xlink:href="#aH"/><use transform="matrix(0.05,0,0,0.05,10,0)" xlink:href="#at"/><use transform="matrix(0.05,0,0,0.05,20,0)" xlink:href="#aJ"/><use transform="matrix(0.05,0,0,0.05,29,0)" xlink:href="#at"/><use transform="matrix(0.05,0,0,0.05,39,0)" xlink:href="#ar"/><use transform="matrix(0.05,0,0,0.05,42.95,0)" xlink:href="#aA"/><use transform="matrix(0.05,0,0,0.05,52.95,0)" xlink:href="#aE"/><use transform="matrix(0.05,0,0,0.05,62.95,0)" xlink:href="#at"/><use transform="matrix(0.05,0,0,0.05,72.95,0)" xlink:href="#aB"/></g><g id="ao"><use transform="matrix(0.05,0,0,0.05,0,0)" xlink:href="#ax"/><use transform="matrix(0.05,0,0,0.05,12,0)" xlink:href="#aF"/></g><path d="M140-251c81 0 123 46 123 126C263-46 219 4 140 4 59 4 17-45 17-125s42-126 123-126zm0 227c63 0 89-41 89-101s-29-99-89-99c-61 0-89 39-89 99S79-25 140-24" id="aW"/><path d="M30 0v-248h187v28H63v79h144v27H63v87h162V0H30" id="aX"/><g id="ap"><use transform="matrix(0.05,0,0,0.05,0,0)" xlink:href="#aw"/><use transform="matrix(0.05,0,0,0.05,12.950000000000001,0)" xlink:href="#aW"/><use transform="matrix(0.05,0,0,0.05,26.950000000000003,0)" xlink:href="#aT"/><use transform="matrix(0.05,0,0,0.05,39.900000000000006,0)" xlink:href="#aX"/></g></defs></g></svg>